<svg width="225" height="159" viewBox="0 0 225 159" fill="none" xmlns="http://www.w3.org/2000/svg">
<g clip-path="url(#clip0_12_2)">
<path d="M202.869 82.7462C202.898 102.421 193.525 121.338 176.719 135.522C175.706 136.383 174.665 137.223 173.598 138.042C171.971 139.298 170.289 140.504 168.553 141.663C152.311 152.519 132.034 158.62 110.995 158.981C110.293 158.994 109.59 159 108.883 159C92.1038 159 70.9989 151.729 51.8464 141.663C50.2618 140.83 48.6913 139.978 47.1349 139.106C46.4074 138.703 45.6835 138.294 44.9631 137.879C37.5762 133.647 30.5645 129 23.9799 123.971C19.6687 120.689 15.6259 117.181 11.8772 113.472C-2.83902 98.7442 -6.08491 85.474 14.8956 82.7462C17.3796 82.4242 19.7905 82.0801 22.1281 81.7138C25.5142 81.1858 28.7548 80.6156 31.8499 80.0033C36.019 79.1812 39.936 78.2898 43.6007 77.329C44.8335 77.0071 46.038 76.6787 47.2143 76.3439C64.6051 71.3882 76.2447 64.9259 84.1677 57.9141C85.5115 56.7272 86.7504 55.5261 87.8844 54.3106C89.6194 52.4605 91.1954 50.5157 92.6012 48.49C94.5414 45.6754 96.1712 42.7271 97.4713 39.6796L97.5427 39.5122C103.847 24.759 101.929 11.0745 108.883 6.49444C138.612 -13.0857 175.624 14.7982 192.996 47.6808C193.872 49.3377 194.695 51.0046 195.467 52.6816C195.813 53.4306 196.148 54.1811 196.47 54.933C197.316 56.8925 198.084 58.857 198.774 60.8266C199.038 61.5778 199.29 62.3282 199.53 63.078C199.787 63.8871 200.033 64.6941 200.26 65.5011C201.951 71.4097 202.869 77.2367 202.869 82.7462Z" fill="#F2F2F2"/>
<path d="M110.995 158.981C110.294 158.994 109.59 159 108.883 159C92.1038 159 70.999 151.729 51.8464 141.663C50.2618 140.83 48.6913 139.978 47.1349 139.107L48.5 132.367L89.8235 127.916L110.563 140.783L110.995 158.981Z" fill="#2F2E41"/>
<path d="M112.984 38.6431H107.095C106.913 38.6431 106.738 38.7019 106.609 38.8066C106.48 38.9112 106.407 39.0531 106.407 39.2011V43.9807C106.407 44.0539 106.425 44.1263 106.46 44.1939C106.495 44.2614 106.545 44.3228 106.609 44.3744C106.673 44.426 106.749 44.4669 106.832 44.4948C106.916 44.5226 107.005 44.5368 107.095 44.5366H112.984C113.166 44.5367 113.34 44.4782 113.469 44.374C113.598 44.2698 113.671 44.1284 113.672 43.9807V39.2011C113.671 39.0532 113.598 38.9115 113.47 38.807C113.341 38.7024 113.166 38.6435 112.984 38.6431Z" fill="white"/>
<path d="M112.984 46.7881H107.095C106.913 46.7882 106.738 46.847 106.609 46.9516C106.48 47.0562 106.407 47.1981 106.407 47.3461V52.1258C106.407 52.1989 106.425 52.2714 106.46 52.3389C106.495 52.4065 106.545 52.4678 106.609 52.5194C106.673 52.5711 106.749 52.612 106.832 52.6398C106.916 52.6677 107.005 52.6819 107.095 52.6817H112.984C113.166 52.6817 113.34 52.6233 113.469 52.5191C113.598 52.4149 113.671 52.2734 113.672 52.1258V47.3461C113.671 47.1982 113.598 47.0566 113.47 46.952C113.341 46.8474 113.166 46.7885 112.984 46.7881Z" fill="#E6E6E6"/>
<path d="M112.984 54.9331H107.095C106.913 54.9332 106.738 54.992 106.609 55.0966C106.48 55.2013 106.407 55.3432 106.407 55.4912V60.2687C106.407 60.342 106.425 60.4146 106.459 60.4824C106.494 60.5502 106.545 60.6117 106.608 60.6636C106.672 60.7154 106.748 60.7565 106.832 60.7845C106.915 60.8125 107.005 60.8268 107.095 60.8267H112.984C113.166 60.8266 113.341 60.7678 113.47 60.6632C113.599 60.5586 113.672 60.4167 113.672 60.2687V55.4912C113.671 55.3433 113.598 55.2016 113.47 55.097C113.341 54.9925 113.166 54.9335 112.984 54.9331Z" fill="#E6E6E6"/>
<path d="M113.661 63.5375C113.632 63.4089 113.548 63.2927 113.424 63.2089C113.301 63.125 113.145 63.0788 112.984 63.0781H107.095C106.913 63.0782 106.738 63.137 106.609 63.2417C106.48 63.3463 106.407 63.4882 106.407 63.6362V68.4137C106.407 68.487 106.425 68.5597 106.459 68.6274C106.494 68.6952 106.545 68.7568 106.608 68.8086C106.672 68.8605 106.748 68.9016 106.832 68.9296C106.915 68.9576 107.005 68.9719 107.095 68.9718H112.984C113.166 68.9717 113.341 68.9129 113.47 68.8082C113.599 68.7036 113.672 68.5617 113.672 68.4137V63.6362C113.672 63.6031 113.669 63.57 113.661 63.5375Z" fill="#E6E6E6"/>
<path d="M113.251 71.2656C113.166 71.2372 113.076 71.2226 112.984 71.2227H107.095C107.005 71.2225 106.915 71.2368 106.832 71.2648C106.748 71.2928 106.672 71.3339 106.608 71.3858C106.545 71.4376 106.494 71.4992 106.459 71.567C106.425 71.6347 106.407 71.7074 106.407 71.7807V76.5582C106.407 76.6316 106.425 76.7043 106.459 76.7722C106.493 76.84 106.544 76.9017 106.608 76.9535C106.672 77.0054 106.748 77.0465 106.832 77.0744C106.915 77.1024 107.005 77.1166 107.095 77.1163H112.984C113.166 77.1162 113.341 77.0574 113.47 76.9527C113.599 76.8481 113.672 76.7062 113.672 76.5582V71.7807C113.671 71.6709 113.631 71.5635 113.557 71.472C113.482 71.3804 113.376 71.3087 113.251 71.2656Z" fill="#E6E6E6"/>
<path d="M125.354 38.6431H119.465C119.283 38.6431 119.108 38.7019 118.979 38.8066C118.85 38.9112 118.777 39.0531 118.777 39.2011V43.9807C118.777 44.0539 118.795 44.1263 118.83 44.1939C118.864 44.2614 118.915 44.3228 118.979 44.3744C119.043 44.426 119.119 44.4669 119.202 44.4948C119.286 44.5226 119.375 44.5368 119.465 44.5366H125.354C125.536 44.5367 125.71 44.4782 125.839 44.374C125.968 44.2698 126.041 44.1284 126.042 43.9807V39.2011C126.041 39.0532 125.968 38.9115 125.839 38.807C125.711 38.7024 125.536 38.6435 125.354 38.6431Z" fill="#E6E6E6"/>
<path d="M125.354 46.7881H119.465C119.283 46.7882 119.108 46.847 118.979 46.9516C118.85 47.0562 118.777 47.1981 118.777 47.3461V52.1258C118.777 52.1989 118.795 52.2714 118.83 52.3389C118.864 52.4065 118.915 52.4678 118.979 52.5194C119.043 52.5711 119.119 52.612 119.202 52.6398C119.286 52.6677 119.375 52.6819 119.465 52.6817H125.354C125.536 52.6817 125.71 52.6233 125.839 52.5191C125.968 52.4149 126.041 52.2734 126.042 52.1258V47.3461C126.041 47.1982 125.968 47.0566 125.839 46.952C125.711 46.8474 125.536 46.7885 125.354 46.7881Z" fill="#DC2E2E"/>
<path d="M125.354 54.9331H119.465C119.283 54.9332 119.108 54.992 118.979 55.0966C118.85 55.2013 118.777 55.3432 118.777 55.4912V60.2687C118.777 60.342 118.795 60.4146 118.829 60.4824C118.864 60.5502 118.914 60.6117 118.978 60.6636C119.042 60.7154 119.118 60.7565 119.202 60.7845C119.285 60.8125 119.375 60.8268 119.465 60.8267H125.354C125.536 60.8266 125.711 60.7678 125.84 60.6632C125.969 60.5586 126.041 60.4167 126.042 60.2687V55.4912C126.041 55.3433 125.968 55.2016 125.839 55.097C125.711 54.9925 125.536 54.9335 125.354 54.9331Z" fill="#DC2E2E"/>
<path d="M125.354 63.0781H119.465C119.321 63.0782 119.18 63.1152 119.064 63.1838C118.947 63.2523 118.859 63.3491 118.814 63.4602C118.79 63.5167 118.777 63.5762 118.777 63.6362V68.4137C118.777 68.487 118.795 68.5597 118.829 68.6274C118.864 68.6952 118.914 68.7568 118.978 68.8086C119.042 68.8605 119.118 68.9016 119.202 68.9295C119.285 68.9575 119.375 68.9719 119.465 68.9717H125.354C125.536 68.9717 125.711 68.9129 125.84 68.8082C125.969 68.7036 126.041 68.5617 126.042 68.4137V63.6362C126.041 63.4883 125.968 63.3466 125.839 63.2421C125.711 63.1375 125.536 63.0786 125.354 63.0781Z" fill="#DC2E2E"/>
<path d="M125.354 71.2227H119.465C119.375 71.2225 119.285 71.2368 119.202 71.2648C119.118 71.2928 119.042 71.3339 118.978 71.3858C118.914 71.4376 118.864 71.4992 118.829 71.567C118.795 71.6347 118.777 71.7074 118.777 71.7807V76.5582C118.777 76.6315 118.795 76.7042 118.829 76.7719C118.864 76.8397 118.914 76.9013 118.978 76.9531C119.042 77.005 119.118 77.0461 119.202 77.0741C119.285 77.1021 119.375 77.1164 119.465 77.1163H125.354C125.536 77.1162 125.711 77.0574 125.84 76.9527C125.969 76.8481 126.041 76.7062 126.042 76.5582V71.7807C126.041 71.6327 125.969 71.4908 125.84 71.3862C125.711 71.2815 125.536 71.2227 125.354 71.2227Z" fill="#E6E6E6"/>
<path d="M137.723 38.6431H131.835C131.652 38.6431 131.478 38.7019 131.349 38.8066C131.22 38.9112 131.147 39.0531 131.147 39.2011V43.9807C131.147 44.0539 131.165 44.1263 131.2 44.1939C131.234 44.2614 131.285 44.3228 131.349 44.3744C131.413 44.426 131.489 44.4669 131.572 44.4948C131.655 44.5226 131.745 44.5368 131.835 44.5366H137.723C137.905 44.5367 138.08 44.4782 138.209 44.374C138.338 44.2698 138.411 44.1284 138.411 43.9807V39.2011C138.411 39.0532 138.338 38.9115 138.209 38.807C138.08 38.7024 137.906 38.6435 137.723 38.6431Z" fill="#DC2E2E"/>
<path d="M137.723 46.7881H131.835C131.652 46.7882 131.478 46.847 131.349 46.9516C131.22 47.0562 131.147 47.1981 131.147 47.3461V52.1258C131.147 52.1989 131.165 52.2714 131.2 52.3389C131.234 52.4065 131.285 52.4678 131.349 52.5194C131.413 52.5711 131.489 52.612 131.572 52.6398C131.655 52.6677 131.745 52.6819 131.835 52.6817H137.723C137.905 52.6817 138.08 52.6233 138.209 52.5191C138.338 52.4149 138.411 52.2734 138.411 52.1258V47.3461C138.411 47.1982 138.338 47.0566 138.209 46.952C138.08 46.8474 137.906 46.7885 137.723 46.7881Z" fill="#DC2E2E"/>
<path d="M137.723 54.9331H131.835C131.652 54.9332 131.478 54.992 131.349 55.0966C131.22 55.2013 131.147 55.3432 131.147 55.4912V60.2687C131.147 60.342 131.165 60.4146 131.199 60.4824C131.234 60.5502 131.284 60.6117 131.348 60.6636C131.412 60.7154 131.488 60.7565 131.571 60.7845C131.655 60.8125 131.744 60.8268 131.835 60.8267H137.723C137.906 60.8266 138.081 60.7678 138.21 60.6632C138.339 60.5586 138.411 60.4167 138.411 60.2687V55.4912C138.411 55.3433 138.338 55.2016 138.209 55.097C138.08 54.9925 137.906 54.9335 137.723 54.9331Z" fill="#E6E6E6"/>
<path d="M137.723 63.0781H131.835C131.652 63.0782 131.478 63.137 131.349 63.2417C131.22 63.3463 131.147 63.4882 131.147 63.6362V68.4137C131.147 68.487 131.165 68.5597 131.199 68.6274C131.234 68.6952 131.284 68.7568 131.348 68.8086C131.412 68.8605 131.488 68.9016 131.571 68.9296C131.655 68.9576 131.744 68.9719 131.835 68.9718H137.723C137.906 68.9717 138.081 68.9129 138.21 68.8082C138.339 68.7036 138.411 68.5617 138.411 68.4137V63.6362C138.411 63.4883 138.338 63.3466 138.209 63.2421C138.08 63.1375 137.906 63.0786 137.723 63.0781Z" fill="#DC2E2E"/>
<path d="M137.723 71.2227H131.835C131.744 71.2225 131.655 71.2368 131.571 71.2648C131.488 71.2928 131.412 71.3339 131.348 71.3858C131.284 71.4376 131.234 71.4992 131.199 71.567C131.165 71.6347 131.147 71.7074 131.147 71.7807V76.5582C131.147 76.6315 131.165 76.7042 131.199 76.7719C131.234 76.8397 131.284 76.9013 131.348 76.9531C131.412 77.005 131.488 77.0461 131.571 77.0741C131.655 77.1021 131.744 77.1164 131.835 77.1163H137.723C137.906 77.1162 138.081 77.0574 138.21 76.9527C138.339 76.8481 138.411 76.7062 138.411 76.5582V71.7807C138.411 71.6327 138.339 71.4908 138.21 71.3862C138.081 71.2815 137.906 71.2227 137.723 71.2227Z" fill="#DC2E2E"/>
<path d="M150.093 38.6431H144.205C144.022 38.6431 143.847 38.7019 143.718 38.8066C143.589 38.9112 143.517 39.0531 143.517 39.2011V43.9807C143.517 44.0539 143.535 44.1263 143.569 44.1939C143.604 44.2614 143.655 44.3228 143.719 44.3744C143.783 44.426 143.858 44.467 143.942 44.4948C144.025 44.5226 144.114 44.5368 144.205 44.5366H150.093C150.275 44.5367 150.45 44.4782 150.579 44.374C150.708 44.2698 150.78 44.1284 150.781 43.9807V39.2011C150.781 39.0532 150.708 38.9115 150.579 38.807C150.45 38.7024 150.276 38.6435 150.093 38.6431Z" fill="#DC2E2E"/>
<path d="M150.093 46.7881H144.205C144.022 46.7882 143.847 46.847 143.718 46.9516C143.589 47.0562 143.517 47.1981 143.517 47.3461V52.1258C143.517 52.1989 143.535 52.2714 143.569 52.3389C143.604 52.4065 143.655 52.4678 143.719 52.5194C143.783 52.5711 143.858 52.612 143.942 52.6398C144.025 52.6677 144.114 52.6819 144.205 52.6817H150.093C150.275 52.6817 150.45 52.6233 150.579 52.5191C150.708 52.4149 150.78 52.2734 150.781 52.1258V47.3461C150.781 47.1982 150.708 47.0566 150.579 46.952C150.45 46.8474 150.276 46.7885 150.093 46.7881Z" fill="white"/>
<path d="M150.093 54.9331H144.205C144.022 54.9332 143.847 54.992 143.718 55.0966C143.589 55.2013 143.517 55.3432 143.517 55.4912V60.2687C143.517 60.342 143.534 60.4146 143.569 60.4824C143.603 60.5502 143.654 60.6117 143.718 60.6636C143.782 60.7154 143.858 60.7565 143.941 60.7845C144.025 60.8125 144.114 60.8268 144.205 60.8267H150.093C150.276 60.8266 150.451 60.7678 150.58 60.6632C150.709 60.5586 150.781 60.4167 150.781 60.2687V55.4912C150.781 55.3433 150.708 55.2016 150.579 55.097C150.45 54.9925 150.276 54.9335 150.093 54.9331Z" fill="white"/>
<path d="M150.093 63.0781H144.205C144.022 63.0782 143.847 63.137 143.718 63.2417C143.589 63.3463 143.517 63.4882 143.517 63.6362V68.4137C143.517 68.4871 143.534 68.5597 143.569 68.6274C143.603 68.6952 143.654 68.7568 143.718 68.8086C143.782 68.8605 143.858 68.9016 143.941 68.9296C144.025 68.9576 144.114 68.9719 144.205 68.9718H150.093C150.276 68.9717 150.451 68.9129 150.58 68.8082C150.709 68.7036 150.781 68.5617 150.781 68.4137V63.6362C150.781 63.4883 150.708 63.3466 150.579 63.2421C150.45 63.1375 150.276 63.0786 150.093 63.0781Z" fill="#E6E6E6"/>
<path d="M150.093 71.2227H144.205C144.114 71.2225 144.025 71.2368 143.941 71.2648C143.858 71.2928 143.782 71.3339 143.718 71.3858C143.654 71.4376 143.603 71.4992 143.569 71.567C143.534 71.6347 143.517 71.7074 143.517 71.7807V76.5582C143.517 76.6315 143.534 76.7042 143.569 76.7719C143.603 76.8397 143.654 76.9013 143.718 76.9531C143.782 77.005 143.858 77.0461 143.941 77.0741C144.025 77.1021 144.114 77.1164 144.205 77.1163H150.093C150.276 77.1162 150.451 77.0574 150.58 76.9527C150.709 76.8481 150.781 76.7062 150.781 76.5582V71.7807C150.781 71.6327 150.709 71.4908 150.58 71.3862C150.451 71.2815 150.276 71.2227 150.093 71.2227Z" fill="#DC2E2E"/>
<path d="M162.463 38.6431H156.572C156.39 38.6436 156.216 38.7026 156.087 38.8072C155.959 38.9118 155.887 39.0534 155.887 39.2011V43.9807C155.887 44.1282 155.959 44.2695 156.087 44.3738C156.216 44.478 156.39 44.5366 156.572 44.5366H162.463C162.645 44.5367 162.82 44.4782 162.949 44.374C163.078 44.2698 163.15 44.1284 163.151 43.9807V39.2011C163.15 39.0532 163.078 38.9115 162.949 38.807C162.82 38.7024 162.645 38.6435 162.463 38.6431Z" fill="white"/>
<path d="M162.463 46.7881H156.572C156.39 46.7886 156.216 46.8476 156.087 46.9522C155.959 47.0568 155.887 47.1985 155.887 47.3461V52.1258C155.887 52.2732 155.959 52.4146 156.087 52.5188C156.216 52.6231 156.39 52.6816 156.572 52.6817H162.463C162.645 52.6817 162.82 52.6233 162.949 52.5191C163.078 52.4149 163.15 52.2734 163.151 52.1258V47.3461C163.15 47.1982 163.078 47.0566 162.949 46.952C162.82 46.8474 162.645 46.7885 162.463 46.7881Z" fill="white"/>
<path d="M162.463 54.9331H156.572C156.39 54.9336 156.216 54.9927 156.087 55.0973C155.959 55.2019 155.887 55.3435 155.887 55.4911V60.2687C155.886 60.3418 155.904 60.4143 155.938 60.482C155.973 60.5496 156.023 60.6111 156.087 60.663C156.15 60.7148 156.226 60.7559 156.309 60.784C156.392 60.8121 156.482 60.8266 156.572 60.8267H162.463C162.646 60.8266 162.82 60.7678 162.949 60.6632C163.078 60.5586 163.151 60.4167 163.151 60.2687V55.4911C163.15 55.3433 163.078 55.2016 162.949 55.097C162.82 54.9925 162.645 54.9335 162.463 54.9331Z" fill="white"/>
<path d="M162.463 63.0781H156.572C156.39 63.0786 156.216 63.1377 156.087 63.2423C155.959 63.3469 155.887 63.4885 155.887 63.6362V68.4137C155.886 68.4869 155.904 68.5594 155.938 68.627C155.973 68.6947 156.023 68.7562 156.087 68.808C156.15 68.8598 156.226 68.901 156.309 68.9291C156.392 68.9572 156.482 68.9717 156.572 68.9717H162.463C162.646 68.9717 162.82 68.9129 162.949 68.8082C163.078 68.7036 163.151 68.5617 163.151 68.4137V63.6362C163.15 63.4883 163.078 63.3466 162.949 63.2421C162.82 63.1375 162.645 63.0786 162.463 63.0781Z" fill="#DC2E2E"/>
<path d="M162.463 71.2227H156.572C156.482 71.2227 156.392 71.2372 156.309 71.2653C156.226 71.2934 156.15 71.3346 156.087 71.3864C156.023 71.4382 155.973 71.4997 155.938 71.5674C155.904 71.635 155.886 71.7075 155.887 71.7807V76.5582C155.886 76.6314 155.904 76.7039 155.938 76.7715C155.973 76.8392 156.023 76.9007 156.087 76.9525C156.15 77.0043 156.226 77.0455 156.309 77.0736C156.392 77.1017 156.482 77.1162 156.572 77.1163H162.463C162.646 77.1162 162.82 77.0574 162.949 76.9527C163.078 76.8481 163.151 76.7062 163.151 76.5582V71.7807C163.151 71.6327 163.078 71.4908 162.949 71.3862C162.82 71.2815 162.646 71.2227 162.463 71.2227Z" fill="#E6E6E6"/>
<path d="M174.833 38.6431H168.942C168.76 38.6436 168.585 38.7026 168.457 38.8072C168.328 38.9118 168.256 39.0534 168.256 39.2011V43.9807C168.257 44.1282 168.329 44.2695 168.457 44.3738C168.586 44.478 168.76 44.5366 168.942 44.5366H174.833C175.015 44.5367 175.189 44.4782 175.318 44.374C175.447 44.2698 175.52 44.1284 175.521 43.9807V39.2011C175.52 39.0532 175.448 38.9115 175.319 38.807C175.19 38.7024 175.015 38.6435 174.833 38.6431Z" fill="white"/>
<path d="M174.833 46.7881H168.942C168.76 46.7886 168.585 46.8476 168.457 46.9522C168.328 47.0568 168.256 47.1985 168.256 47.3461V52.1258C168.257 52.2732 168.329 52.4146 168.457 52.5188C168.586 52.6231 168.76 52.6816 168.942 52.6817H174.833C175.015 52.6817 175.189 52.6232 175.318 52.519C175.447 52.4149 175.52 52.2734 175.521 52.1258V47.3461C175.52 47.1982 175.448 47.0566 175.319 46.952C175.19 46.8474 175.015 46.7885 174.833 46.7881Z" fill="white"/>
<path d="M174.833 54.9331H168.942C168.76 54.9336 168.585 54.9927 168.457 55.0973C168.328 55.2019 168.256 55.3435 168.256 55.4911V60.2687C168.256 60.3418 168.274 60.4143 168.308 60.482C168.342 60.5496 168.393 60.6111 168.456 60.663C168.52 60.7148 168.596 60.7559 168.679 60.784C168.762 60.8121 168.851 60.8266 168.942 60.8267H174.833C175.015 60.8266 175.19 60.7678 175.319 60.6632C175.448 60.5585 175.521 60.4167 175.521 60.2687V55.4911C175.52 55.3433 175.448 55.2016 175.319 55.097C175.19 54.9925 175.015 54.9335 174.833 54.9331Z" fill="#DC2E2E"/>
<path d="M174.833 63.0781H168.942C168.76 63.0786 168.585 63.1377 168.457 63.2423C168.328 63.3469 168.256 63.4885 168.256 63.6362V68.4137C168.256 68.4869 168.274 68.5594 168.308 68.627C168.342 68.6947 168.393 68.7562 168.456 68.808C168.52 68.8598 168.596 68.901 168.679 68.9291C168.762 68.9572 168.851 68.9717 168.942 68.9717H174.833C175.015 68.9717 175.19 68.9129 175.319 68.8082C175.448 68.7036 175.521 68.5617 175.521 68.4137V63.6362C175.52 63.4883 175.448 63.3466 175.319 63.2421C175.19 63.1375 175.015 63.0786 174.833 63.0781Z" fill="#E6E6E6"/>
<path d="M174.833 71.2227H168.942C168.851 71.2227 168.762 71.2372 168.679 71.2653C168.596 71.2934 168.52 71.3346 168.456 71.3864C168.393 71.4382 168.342 71.4997 168.308 71.5674C168.274 71.635 168.256 71.7075 168.256 71.7807V76.5582C168.256 76.6314 168.274 76.7039 168.308 76.7715C168.342 76.8392 168.393 76.9007 168.456 76.9525C168.52 77.0043 168.596 77.0455 168.679 77.0736C168.762 77.1017 168.851 77.1162 168.942 77.1163H174.833C175.015 77.1162 175.19 77.0574 175.319 76.9527C175.448 76.8481 175.521 76.7062 175.521 76.5582V71.7807C175.521 71.6327 175.448 71.4908 175.319 71.3862C175.19 71.2815 175.015 71.2227 174.833 71.2227Z" fill="white"/>
<path d="M187.203 38.6431H181.311C181.129 38.6436 180.955 38.7026 180.827 38.8072C180.698 38.9118 180.626 39.0534 180.626 39.2011V43.9807C180.626 44.1282 180.698 44.2695 180.827 44.3738C180.955 44.478 181.13 44.5366 181.311 44.5366H187.203C187.385 44.5367 187.559 44.4782 187.688 44.374C187.817 44.2698 187.89 44.1284 187.89 43.9807V39.2011C187.89 39.0532 187.817 38.9115 187.688 38.807C187.56 38.7024 187.385 38.6435 187.203 38.6431Z" fill="#DC2E2E"/>
<path d="M187.203 46.7881H181.311C181.129 46.7886 180.955 46.8476 180.827 46.9522C180.698 47.0568 180.626 47.1985 180.626 47.3461V52.1258C180.626 52.2732 180.698 52.4146 180.827 52.5188C180.955 52.6231 181.13 52.6816 181.311 52.6817H187.203C187.385 52.6817 187.559 52.6232 187.688 52.519C187.817 52.4149 187.89 52.2734 187.89 52.1258V47.3461C187.89 47.1982 187.817 47.0566 187.688 46.952C187.56 46.8474 187.385 46.7885 187.203 46.7881Z" fill="#DC2E2E"/>
<path d="M187.203 54.9331H181.311C181.129 54.9336 180.955 54.9927 180.827 55.0973C180.698 55.2019 180.626 55.3435 180.626 55.4911V60.2687C180.626 60.3418 180.643 60.4143 180.678 60.482C180.712 60.5496 180.763 60.6111 180.826 60.663C180.89 60.7148 180.965 60.7559 181.049 60.784C181.132 60.8121 181.221 60.8266 181.311 60.8267H187.203C187.385 60.8266 187.56 60.7678 187.689 60.6632C187.818 60.5585 187.89 60.4167 187.89 60.2687V55.4911C187.89 55.3433 187.817 55.2016 187.688 55.097C187.559 54.9925 187.385 54.9335 187.203 54.9331Z" fill="#E6E6E6"/>
<path d="M187.203 63.0781H181.311C181.129 63.0786 180.955 63.1377 180.827 63.2423C180.698 63.3469 180.626 63.4885 180.626 63.6362V68.4137C180.626 68.4869 180.644 68.5594 180.678 68.627C180.712 68.6947 180.763 68.7562 180.826 68.808C180.89 68.8598 180.965 68.901 181.049 68.9291C181.132 68.9572 181.221 68.9717 181.311 68.9717H187.203C187.385 68.9717 187.56 68.9129 187.689 68.8082C187.818 68.7036 187.89 68.5617 187.89 68.4137V63.6362C187.89 63.4883 187.817 63.3466 187.688 63.2421C187.56 63.1375 187.385 63.0786 187.203 63.0781Z" fill="white"/>
<path d="M187.203 71.2227H181.311C181.221 71.2227 181.132 71.2372 181.049 71.2653C180.965 71.2934 180.89 71.3346 180.826 71.3864C180.763 71.4382 180.712 71.4997 180.678 71.5674C180.644 71.635 180.626 71.7075 180.626 71.7807V76.5582C180.626 76.6314 180.644 76.7039 180.678 76.7715C180.712 76.8392 180.763 76.9007 180.826 76.9525C180.89 77.0043 180.965 77.0455 181.049 77.0736C181.132 77.1017 181.221 77.1162 181.311 77.1163H187.203C187.385 77.1162 187.56 77.0574 187.689 76.9527C187.818 76.8481 187.89 76.7062 187.89 76.5582V71.7807C187.89 71.6327 187.818 71.4908 187.689 71.3862C187.56 71.2815 187.385 71.2227 187.203 71.2227Z" fill="#DC2E2E"/>
<path d="M199.573 38.6431H193.681C193.499 38.6436 193.325 38.7026 193.197 38.8072C193.068 38.9118 192.996 39.0534 192.996 39.2011V43.9807C192.996 44.1282 193.068 44.2695 193.197 44.3738C193.325 44.478 193.5 44.5366 193.681 44.5366H199.573C199.755 44.5367 199.929 44.4782 200.058 44.374C200.187 44.2698 200.26 44.1284 200.26 43.9807V39.2011C200.26 39.0532 200.187 38.9115 200.058 38.807C199.929 38.7024 199.755 38.6435 199.573 38.6431Z" fill="#DC2E2E"/>
<path d="M199.573 46.7881H193.681C193.499 46.7886 193.325 46.8476 193.197 46.9522C193.068 47.0568 192.996 47.1985 192.996 47.3461V52.1258C192.996 52.2732 193.068 52.4146 193.197 52.5188C193.325 52.6231 193.5 52.6816 193.681 52.6817H199.573C199.755 52.6817 199.929 52.6232 200.058 52.519C200.187 52.4149 200.26 52.2734 200.26 52.1258V47.3461C200.26 47.1982 200.187 47.0566 200.058 46.952C199.929 46.8474 199.755 46.7885 199.573 46.7881Z" fill="#DC2E2E"/>
<path d="M199.573 54.9331H193.681C193.499 54.9336 193.325 54.9927 193.197 55.0973C193.068 55.2019 192.996 55.3435 192.996 55.4911V60.2687C192.996 60.3418 193.013 60.4143 193.048 60.482C193.082 60.5496 193.132 60.6111 193.196 60.663C193.26 60.7148 193.335 60.7559 193.419 60.784C193.502 60.8121 193.591 60.8266 193.681 60.8267H199.573C199.755 60.8266 199.93 60.7678 200.059 60.6632C200.188 60.5585 200.26 60.4167 200.26 60.2687V55.4911C200.26 55.3433 200.187 55.2016 200.058 55.097C199.929 54.9925 199.755 54.9335 199.573 54.9331Z" fill="#E6E6E6"/>
<path d="M199.573 63.0781H193.681C193.499 63.0786 193.325 63.1377 193.197 63.2423C193.068 63.3469 192.996 63.4885 192.996 63.6362V68.4137C192.996 68.4869 193.013 68.5594 193.048 68.627C193.082 68.6947 193.132 68.7562 193.196 68.808C193.26 68.8598 193.335 68.901 193.419 68.9291C193.502 68.9572 193.591 68.9717 193.681 68.9717H199.573C199.755 68.9717 199.93 68.9129 200.059 68.8082C200.188 68.7036 200.26 68.5617 200.26 68.4137V63.6362C200.26 63.4883 200.187 63.3466 200.058 63.2421C199.929 63.1375 199.755 63.0786 199.573 63.0781Z" fill="#DC2E2E"/>
<path d="M199.573 71.2227H193.681C193.591 71.2227 193.502 71.2372 193.419 71.2653C193.335 71.2934 193.26 71.3346 193.196 71.3864C193.132 71.4382 193.082 71.4997 193.048 71.5674C193.013 71.635 192.996 71.7075 192.996 71.7807V76.5582C192.996 76.6314 193.013 76.7039 193.048 76.7715C193.082 76.8392 193.132 76.9007 193.196 76.9525C193.26 77.0043 193.335 77.0455 193.419 77.0736C193.502 77.1017 193.591 77.1162 193.681 77.1163H199.573C199.755 77.1162 199.93 77.0574 200.059 76.9527C200.188 76.8481 200.26 76.7062 200.26 76.5582V71.7807C200.26 71.6327 200.188 71.4908 200.059 71.3862C199.93 71.2815 199.755 71.2227 199.573 71.2227Z" fill="#DC2E2E"/>
<path d="M211.942 38.6431H206.051C205.869 38.6436 205.695 38.7026 205.566 38.8072C205.438 38.9118 205.366 39.0534 205.366 39.2011V43.9807C205.366 44.1282 205.438 44.2695 205.567 44.3738C205.695 44.478 205.869 44.5366 206.051 44.5366H211.942C212.124 44.5367 212.299 44.4782 212.428 44.374C212.557 44.2698 212.63 44.1284 212.63 43.9807V39.2011C212.63 39.0532 212.557 38.9115 212.428 38.807C212.299 38.7024 212.125 38.6435 211.942 38.6431Z" fill="#E6E6E6"/>
<path d="M211.942 46.7881H206.051C205.869 46.7886 205.695 46.8476 205.566 46.9522C205.438 47.0568 205.366 47.1985 205.366 47.3461V52.1258C205.366 52.2732 205.438 52.4146 205.567 52.5188C205.695 52.6231 205.869 52.6816 206.051 52.6817H211.942C212.124 52.6817 212.299 52.6232 212.428 52.519C212.557 52.4149 212.63 52.2734 212.63 52.1258V47.3461C212.63 47.1982 212.557 47.0566 212.428 46.952C212.299 46.8474 212.125 46.7885 211.942 46.7881Z" fill="#DC2E2E"/>
<path d="M211.942 54.9331H206.051C205.869 54.9336 205.695 54.9927 205.566 55.0973C205.438 55.2019 205.366 55.3435 205.366 55.4911V60.2687C205.366 60.3418 205.383 60.4143 205.418 60.482C205.452 60.5496 205.502 60.6111 205.566 60.663C205.63 60.7148 205.705 60.7559 205.788 60.784C205.872 60.8121 205.961 60.8266 206.051 60.8267H211.942C212.125 60.8266 212.3 60.7678 212.429 60.6632C212.558 60.5585 212.63 60.4167 212.63 60.2687V55.4911C212.63 55.3433 212.557 55.2016 212.428 55.097C212.299 54.9925 212.125 54.9335 211.942 54.9331Z" fill="#DC2E2E"/>
<path d="M211.942 63.0781H206.051C205.869 63.0786 205.695 63.1377 205.566 63.2423C205.438 63.3469 205.366 63.4885 205.366 63.6362V68.4137C205.366 68.4869 205.383 68.5594 205.418 68.627C205.452 68.6947 205.502 68.7562 205.566 68.808C205.63 68.8598 205.705 68.901 205.788 68.9291C205.872 68.9572 205.961 68.9717 206.051 68.9717H211.942C212.125 68.9717 212.3 68.9129 212.429 68.8082C212.558 68.7036 212.63 68.5617 212.63 68.4137V63.6362C212.63 63.4883 212.557 63.3466 212.428 63.2421C212.299 63.1375 212.125 63.0786 211.942 63.0781Z" fill="#DC2E2E"/>
<path d="M211.942 71.2227H206.051C205.961 71.2227 205.872 71.2372 205.788 71.2653C205.705 71.2934 205.63 71.3346 205.566 71.3864C205.502 71.4382 205.452 71.4997 205.418 71.5674C205.383 71.635 205.366 71.7075 205.366 71.7807V76.5582C205.366 76.6314 205.383 76.7039 205.418 76.7715C205.452 76.8392 205.502 76.9007 205.566 76.9525C205.63 77.0043 205.705 77.0455 205.788 77.0736C205.872 77.1017 205.961 77.1162 206.051 77.1163H211.942C212.125 77.1162 212.3 77.0574 212.429 76.9527C212.558 76.8481 212.63 76.7062 212.63 76.5582V71.7807C212.63 71.6327 212.558 71.4908 212.429 71.3862C212.3 71.2815 212.125 71.2227 211.942 71.2227Z" fill="#E6E6E6"/>
<path d="M224.312 38.6431H218.421C218.239 38.6436 218.065 38.7026 217.936 38.8072C217.808 38.9118 217.736 39.0534 217.736 39.2011V43.9807C217.736 44.1282 217.808 44.2695 217.936 44.3738C218.065 44.478 218.239 44.5366 218.421 44.5366H224.312C224.494 44.5367 224.669 44.4782 224.798 44.374C224.927 44.2698 224.999 44.1284 225 43.9807V39.2011C224.999 39.0532 224.927 38.9115 224.798 38.807C224.669 38.7024 224.494 38.6435 224.312 38.6431Z" fill="#E6E6E6"/>
<path d="M224.312 46.7881H218.421C218.239 46.7886 218.065 46.8476 217.936 46.9522C217.808 47.0568 217.736 47.1985 217.736 47.3461V52.1258C217.736 52.2732 217.808 52.4146 217.936 52.5188C218.065 52.6231 218.239 52.6816 218.421 52.6817H224.312C224.494 52.6817 224.669 52.6232 224.798 52.519C224.927 52.4149 224.999 52.2734 225 52.1258V47.3461C224.999 47.1982 224.927 47.0566 224.798 46.952C224.669 46.8474 224.494 46.7885 224.312 46.7881Z" fill="#E6E6E6"/>
<path d="M224.312 54.9331H218.421C218.239 54.9336 218.065 54.9927 217.936 55.0973C217.808 55.2019 217.736 55.3435 217.736 55.4911V60.2687C217.735 60.3418 217.753 60.4143 217.787 60.482C217.822 60.5496 217.872 60.6111 217.936 60.663C217.999 60.7148 218.075 60.7559 218.158 60.784C218.241 60.8121 218.331 60.8266 218.421 60.8267H224.312C224.495 60.8266 224.669 60.7678 224.798 60.6632C224.927 60.5585 225 60.4167 225 60.2687V55.4911C224.999 55.3433 224.927 55.2016 224.798 55.097C224.669 54.9925 224.494 54.9335 224.312 54.9331Z" fill="#DC2E2E"/>
<path d="M224.312 63.0781H218.421C218.239 63.0787 218.065 63.1377 217.936 63.2423C217.808 63.3469 217.736 63.4885 217.736 63.6362V68.4137C217.735 68.4869 217.753 68.5594 217.787 68.627C217.822 68.6947 217.872 68.7562 217.936 68.808C217.999 68.8598 218.075 68.901 218.158 68.9291C218.241 68.9572 218.331 68.9717 218.421 68.9717H224.312C224.495 68.9717 224.669 68.9129 224.798 68.8082C224.927 68.7036 225 68.5617 225 68.4137V63.6362C224.999 63.4883 224.927 63.3466 224.798 63.2421C224.669 63.1375 224.494 63.0786 224.312 63.0781Z" fill="#E6E6E6"/>
<path d="M224.312 71.2227H218.421C218.331 71.2227 218.241 71.2372 218.158 71.2653C218.075 71.2934 217.999 71.3346 217.936 71.3864C217.872 71.4382 217.822 71.4997 217.787 71.5674C217.753 71.635 217.735 71.7075 217.736 71.7807V76.5582C217.735 76.6314 217.753 76.7039 217.787 76.7715C217.822 76.8392 217.872 76.9007 217.936 76.9525C217.999 77.0043 218.075 77.0455 218.158 77.0736C218.241 77.1017 218.331 77.1162 218.421 77.1163H224.312C224.495 77.1162 224.669 77.0574 224.798 76.9527C224.927 76.8481 225 76.7062 225 76.5582V71.7807C225 71.6327 224.927 71.4908 224.798 71.3862C224.669 71.2815 224.495 71.2227 224.312 71.2227Z" fill="#E6E6E6"/>
<path d="M88.91 141.663H88.746L88.8862 141.648L88.91 141.663Z" fill="#2F2E41"/>
<path d="M74.8153 52.5946C84.7971 52.5946 92.889 46.0296 92.889 37.9311C92.889 29.8327 84.7971 23.2676 74.8153 23.2676C64.8334 23.2676 56.7415 29.8327 56.7415 37.9311C56.7415 46.0296 64.8334 52.5946 74.8153 52.5946Z" fill="#FFB6B6"/>
<path d="M90.643 27.18C90.643 27.18 95.3702 19.8482 84.9703 19.1817C84.9703 19.1817 76.1043 12.6566 67.0675 17.9888C67.0675 17.9888 62.1383 17.9888 59.4428 22.5143C59.4428 22.5143 55.566 21.3214 54.714 24.5139C54.714 24.5139 51.8773 31.1791 54.714 37.1779C57.5508 43.1766 58.4931 43.8431 58.4931 43.8431C58.4931 43.8431 53.8317 31.2665 65.1779 30.5999C76.5242 29.9334 89.2209 24.1806 90.1665 31.5124C91.1121 38.8441 92.535 40.6506 92.535 40.6506C92.535 40.6506 101.516 30.1794 90.643 27.18Z" fill="#2F2E41"/>
<path d="M121.568 74.0687L121.51 74.3176L120.857 77.1163L116.341 96.4754L116.074 97.6151L115.513 100.025L114.746 103.313L113.045 110.6L112.558 112.688L112.375 113.472L112.312 113.746L111.807 115.908L111.653 116.56L110.421 123.971L109.344 130.429L112.947 133.352L110.799 135.095L109.389 141.647L109.391 141.662H51.8464C49.5185 140.439 47.224 139.178 44.9631 137.879L45.4367 135.003C45.4367 135.003 47.0662 129.867 46.381 129.253C45.6985 128.639 44.2012 127.542 44.2012 127.542L46.0874 123.971L46.3493 123.475L45.9102 116.086L45.8996 115.908L45.7541 113.472L45.7356 113.158L45.7065 112.688L45.1483 103.313L45.1377 103.159L44.9684 100.317L44.8097 97.6151L44.7409 96.4754L44.0611 85.0724L43.6008 77.3288L43.1987 70.5875L44.815 70.1432L62.1026 65.3764L69.2636 57.8237L84.1678 57.9139L91.4637 57.959L103.638 67.1191L106.408 68.1922L106.429 68.2008L108.415 68.9713L113.452 70.9223L118.777 72.987L121.51 74.045L121.568 74.0687Z" fill="#CACACA"/>
<path d="M71.1897 119.664C70.0975 120.007 68.9258 120.152 67.7572 120.088C66.5886 120.024 65.4514 119.753 64.4258 119.294C63.4002 118.835 62.5111 118.199 61.8212 117.431C61.1312 116.664 60.6572 115.782 60.4325 114.85L32.2436 111.605L42.0428 102.612L67.3092 107.072C69.2653 106.869 71.245 107.256 72.8732 108.159C74.5013 109.061 75.6648 110.417 76.1431 111.969C76.6214 113.521 76.3814 115.162 75.4684 116.58C74.5555 117.998 73.033 119.095 71.1897 119.664V119.664Z" fill="#FFB6B6"/>
<path d="M58.6212 103.314C58.099 102.777 57.3598 102.406 56.534 102.268L44.9684 100.317L43.7806 100.118C43.0903 100.001 42.4382 99.7672 41.867 99.4317C41.2958 99.0963 40.8184 98.6667 40.4659 98.1712C40.1003 97.6511 39.8791 97.0724 39.8178 96.4757C39.7627 95.9332 39.8427 95.3872 40.0532 94.8703L44.061 85.0727L46.6614 78.7156C46.9765 77.9489 47.1625 77.1511 47.2143 76.344C47.3592 74.1103 46.5074 71.9091 44.8149 70.1435C43.327 68.5916 41.2632 67.4691 38.9285 66.942C36.5939 66.4148 34.1121 66.5109 31.8499 67.216C31.7838 67.2353 31.715 67.2568 31.6488 67.2782C30.0265 67.8038 28.577 68.6283 27.415 69.6865C26.253 70.7448 25.4102 72.0078 24.9534 73.3757L22.1281 81.7139L16.3003 98.9031C15.7169 100.625 15.5991 102.429 15.9548 104.192C16.3105 105.955 17.1315 107.634 18.3614 109.115C19.5914 110.597 21.2013 111.845 23.0809 112.775C24.9606 113.704 27.0657 114.294 29.2521 114.502L45.9101 116.086L53.6188 116.82C54.5101 116.907 55.4092 116.718 56.1367 116.291C56.8642 115.865 57.3669 115.231 57.5445 114.517C57.557 114.478 57.5667 114.439 57.5736 114.399L57.7588 113.472L59.3275 105.664L59.3434 105.584C59.4251 105.186 59.4031 104.778 59.2787 104.387C59.1543 103.996 58.9303 103.63 58.6212 103.314Z" fill="#CACACA"/>
<path d="M89.1449 119.914C90.2858 120.129 91.4709 120.138 92.6168 119.941C93.7626 119.744 94.8413 119.346 95.7769 118.774C96.7124 118.203 97.4821 117.471 98.0317 116.632C98.5813 115.793 98.8974 114.866 98.9578 113.917L126.301 107.48L115.037 99.6978L90.7979 107.004C88.8261 107.027 86.9334 107.637 85.4784 108.717C84.0234 109.796 83.1072 111.272 82.9034 112.863C82.6997 114.455 83.2225 116.051 84.3728 117.351C85.5232 118.65 87.2211 119.562 89.1449 119.914V119.914Z" fill="#FFB6B6"/>
<path d="M139.877 93.0802L126.872 68.7976C125.808 66.804 123.909 65.1806 121.51 64.2153C120.768 63.9192 119.99 63.6889 119.187 63.5285C119.063 63.5028 118.939 63.4792 118.814 63.4598C117.113 63.1586 115.348 63.1851 113.661 63.5371C112.119 63.8585 110.678 64.4399 109.432 65.2435C108.186 66.0471 107.162 67.0548 106.429 68.2009C106.421 68.2105 106.413 68.2205 106.407 68.2309C105.588 69.5175 105.152 70.9423 105.135 72.3906C105.118 73.8388 105.52 75.2701 106.31 76.5691L106.471 76.831L115.661 91.8053C115.975 92.3173 116.152 92.8775 116.18 93.4488C116.208 94.0202 116.087 94.59 115.825 95.1208C115.562 95.6516 115.165 96.1314 114.658 96.5287C114.151 96.926 113.546 97.2319 112.883 97.4263L112.238 97.6152L100.63 101.017C99.7589 101.269 99.0424 101.786 98.6314 102.458C98.2204 103.13 98.1469 103.905 98.4263 104.62L98.4554 104.696L101.709 113.143C101.725 113.182 101.741 113.221 101.759 113.259C101.788 113.332 101.823 113.403 101.865 113.472C102.211 114.101 102.822 114.609 103.589 114.906C104.356 115.202 105.227 115.266 106.048 115.088L112.312 113.746L113.59 113.472L129.766 110.005C131.895 109.549 133.876 108.725 135.576 107.59C137.275 106.454 138.652 105.034 139.613 103.427C140.573 101.819 141.093 100.063 141.139 98.2768C141.185 96.4911 140.754 94.7184 139.877 93.0801L139.877 93.0802Z" fill="#CACACA"/>
<path d="M11.8773 113.472C15.6259 117.181 19.6687 120.688 23.9799 123.971H143.543C144.695 123.973 145.799 124.345 146.614 125.006C147.428 125.667 147.886 126.563 147.887 127.497L148.059 152.078C155.414 149.337 162.303 145.836 168.553 141.663C170.288 140.506 171.97 139.299 173.598 138.042C174.664 137.222 175.704 136.382 176.719 135.522C184.328 129.091 190.49 121.628 194.925 113.472H11.8773Z" fill="#3F3D56"/>
<path d="M176.719 135.522C175.706 136.383 174.665 137.223 173.597 138.042H148.146V135.522H176.719Z" fill="white"/>
<path d="M121.33 54.9329C121.204 54.7447 121.018 54.5874 120.791 54.4779C120.565 54.3683 120.306 54.3105 120.042 54.3105H33.3155C32.9266 54.3114 32.5541 54.4372 32.2794 54.6605C32.0047 54.8837 31.8502 55.1862 31.8499 55.5017V97.6153H121.51V55.5017C121.511 55.3027 121.449 55.1068 121.33 54.9329Z" fill="#3F3D56"/>
<path d="M31.7714 96.4751V101.672C31.7714 101.887 31.8237 102.101 31.9253 102.3C32.0269 102.499 32.1758 102.68 32.3636 102.832C32.5514 102.984 32.7743 103.105 33.0196 103.188C33.265 103.27 33.5279 103.313 33.7934 103.313H66.8863V113.569H66.4467C66.4122 113.569 66.3781 113.574 66.3462 113.585C66.3143 113.596 66.2854 113.611 66.261 113.631C66.2366 113.651 66.2172 113.674 66.204 113.7C66.1908 113.726 66.184 113.754 66.184 113.782V114.495C66.184 114.523 66.1908 114.551 66.204 114.577C66.2172 114.603 66.2366 114.626 66.261 114.646C66.2854 114.666 66.3143 114.681 66.3462 114.692C66.3781 114.703 66.4122 114.708 66.4467 114.708H86.9904C87.0248 114.708 87.059 114.703 87.0909 114.692C87.1227 114.681 87.1517 114.666 87.1761 114.646C87.2005 114.626 87.2198 114.603 87.233 114.577C87.2462 114.551 87.253 114.523 87.253 114.495V113.782C87.253 113.754 87.2462 113.726 87.233 113.7C87.2198 113.674 87.2005 113.651 87.1761 113.631C87.1517 113.611 87.1227 113.596 87.0909 113.585C87.059 113.574 87.0248 113.569 86.9904 113.569H86.5507V103.313H119.644C119.909 103.313 120.172 103.27 120.417 103.188C120.663 103.105 120.886 102.984 121.073 102.832C121.261 102.68 121.41 102.499 121.512 102.3C121.613 102.101 121.666 101.887 121.666 101.672V96.4751H31.7714Z" fill="#3F3D56"/>
<path d="M75.6323 81.5593C80.2062 81.5593 83.9141 78.5511 83.9141 74.8402C83.9141 71.1293 80.2062 68.1211 75.6323 68.1211C71.0585 68.1211 67.3506 71.1293 67.3506 74.8402C67.3506 78.5511 71.0585 81.5593 75.6323 81.5593Z" fill="#DC2E2E"/>
<path d="M96.7332 37.1297H95.4105C95.4105 29.0169 85.5142 23.7007 75.5305 23.6964C74.0783 23.693 72.6294 23.8073 71.2053 24.0377C69.6022 24.2974 67.9382 24.6086 66.3034 25.0142C59.8566 26.6174 53.878 29.7166 53.878 37.1297C53.8766 38.5694 54.1024 40.0033 54.5499 41.3965L53.2696 41.6669C52.7947 40.1853 52.5546 38.6606 52.5553 37.1297C52.5553 30.6524 55.8329 26.2032 61.4941 23.5505C64.4701 22.1554 68.1022 21.2561 72.2634 20.8183C73.995 20.6314 75.7456 20.5882 77.4881 20.6895C88.969 21.3591 96.7332 28.5018 96.7332 37.1297Z" fill="#DC2E2E"/>
<path d="M98.9369 37.7244L98.4157 34.5995C98.2872 33.8103 97.8186 33.0835 97.093 32.5477C96.6272 32.1984 96.0696 31.9396 95.4623 31.7908C94.8551 31.6421 94.2141 31.6074 93.5879 31.6892L92.7599 31.7815C92.5333 31.8057 92.3149 31.8661 92.1174 31.9593C91.9198 32.0526 91.7471 32.1767 91.6091 32.3245C91.47 32.4718 91.3682 32.64 91.3096 32.8194C91.2511 32.9988 91.2369 33.1858 91.2679 33.3697L92.4715 40.5682C92.5211 40.8616 92.6832 41.1349 92.9348 41.3494C93.1864 41.564 93.5149 41.7089 93.8736 41.7636C93.9798 41.7809 94.088 41.7895 94.1963 41.7894C94.2742 41.7894 94.352 41.7851 94.4291 41.7765L95.355 41.6756C95.9195 41.6149 96.4627 41.4611 96.9513 41.2238C97.4399 40.9865 97.8635 40.6706 98.1962 40.2956C98.2676 40.2141 98.3364 40.1304 98.3998 40.0445C98.8957 39.3422 99.0849 38.5248 98.9369 37.7244Z" fill="#DC2E2E"/>
<path d="M92.2255 31.9126C91.9827 32.0083 91.7714 32.1496 91.6091 32.3247C91.47 32.472 91.3682 32.6402 91.3096 32.8196C91.2511 32.999 91.2369 33.186 91.2679 33.3699L92.4715 40.5684C92.5211 40.8618 92.6832 41.1351 92.9348 41.3497C93.1864 41.5642 93.5148 41.7091 93.8736 41.7639L92.2255 31.9126Z" fill="white"/>
<path d="M98.9369 37.7246L98.4157 34.5997C98.2872 33.8105 97.8186 33.0837 97.093 32.5479L98.2914 39.7099C98.3093 39.8248 98.3458 39.9374 98.3998 40.0447C98.8957 39.3424 99.0849 38.5249 98.9369 37.7246Z" fill="#3F3D56"/>
<path d="M94.8181 39.9761C95.18 39.9363 95.3619 39.2375 95.2245 38.4153C95.087 37.5931 94.6821 36.9588 94.3202 36.9987C93.9583 37.0385 93.7763 37.7373 93.9138 38.5595C94.0513 39.3817 94.4561 40.016 94.8181 39.9761Z" fill="#3F3D56"/>
<path d="M94.0245 36.1124C94.3864 36.0725 94.5684 35.3737 94.4309 34.5515C94.2934 33.7293 93.8885 33.0951 93.5266 33.1349C93.1647 33.1747 92.9827 33.8736 93.1202 34.6958C93.2577 35.518 93.6625 36.1522 94.0245 36.1124Z" fill="#3F3D56"/>
<path d="M99.0507 37.6148C99.4126 37.575 99.5946 36.8762 99.4571 36.054C99.3196 35.2317 98.9147 34.5975 98.5528 34.6373C98.1909 34.6772 98.0089 35.376 98.1464 36.1982C98.2839 37.0204 98.6887 37.6547 99.0507 37.6148Z" fill="#3F3D56"/>
<path d="M75.5305 23.6964C74.0784 23.693 72.6294 23.8073 71.2053 24.0377C69.6022 24.2974 67.9382 24.6086 66.3034 25.0142C63.7506 24.9133 61.8724 24.3768 61.4941 23.5505C64.4701 22.1554 68.1023 21.2561 72.2635 20.8183C73.9951 20.6314 75.7457 20.5882 77.4881 20.6895C77.6726 20.7773 77.832 20.8957 77.9561 21.037C78.0801 21.1783 78.1658 21.3393 78.2077 21.5094C78.332 22.2563 77.2818 23.0504 75.5305 23.6964Z" fill="#3F3D56"/>
<path d="M58.6423 44.5777L56.6054 37.7076C56.5328 37.4597 56.3715 37.2348 56.1418 37.061C55.9121 36.8873 55.6243 36.7725 55.3145 36.731C55.2269 36.72 55.1385 36.7142 55.0499 36.7139C54.9251 36.7142 54.8008 36.7265 54.6796 36.7504L53.8912 36.9049C52.8762 37.104 52.0001 37.6218 51.455 38.3444C50.91 39.0671 50.7406 39.9356 50.984 40.7595L51.8966 43.8415C52.105 44.5671 52.6013 45.2171 53.3092 45.6916C53.424 45.7667 53.5441 45.8363 53.669 45.8998C54.1125 46.1253 54.6071 46.2764 55.1237 46.3442C55.6403 46.412 56.1684 46.3952 56.6768 46.2947L57.4625 46.1402C57.6702 46.1008 57.8657 46.027 58.0365 45.9234C58.2906 45.7731 58.4839 45.5649 58.5917 45.3253C58.6996 45.0857 58.7172 44.8255 58.6423 44.5777Z" fill="#DC2E2E"/>
<path d="M54.3721 43.2987C54.7272 43.2294 54.8211 42.5192 54.5818 41.7125C54.3426 40.9058 53.8607 40.3081 53.5056 40.3774C53.1505 40.4467 53.0566 41.1569 53.2959 41.9636C53.5351 42.7703 54.017 43.3681 54.3721 43.2987Z" fill="#3F3D56"/>
<path d="M51.7267 43.9428C52.0818 43.8734 52.1757 43.1633 51.9365 42.3566C51.6972 41.5499 51.2153 40.9521 50.8602 41.0214C50.5051 41.0908 50.4112 41.8009 50.6505 42.6076C50.8897 43.4143 51.3716 44.0121 51.7267 43.9428Z" fill="#3F3D56"/>
<path d="M58.772 44.5516L56.735 37.6814C56.6557 37.4133 56.4806 37.17 56.2317 36.9822C55.9827 36.7944 55.6711 36.6703 55.3356 36.6255L58.1159 46.0089C58.3905 45.8457 58.5994 45.6202 58.7161 45.3609C58.8329 45.1015 58.8523 44.8199 58.772 44.5516Z" fill="white"/>
<path d="M51.4442 39.3984C51.388 39.2073 51.2825 39.0281 51.1347 38.8726C50.8484 39.4742 50.7958 40.1325 50.9839 40.7591L51.8966 43.8411C52.105 44.5667 52.6013 45.2167 53.3092 45.6912L51.4442 39.3984Z" fill="#3F3D56"/>
</g>
<defs>
<clipPath id="clip0_12_2">
<rect width="225" height="159" fill="white"/>
</clipPath>
</defs>
</svg>
