<svg width="225" height="159" viewBox="0 0 225 159" fill="none" xmlns="http://www.w3.org/2000/svg">
<g clip-path="url(#clip0_12_189)">
<path d="M197.814 153.085C200.274 157.057 205.65 158.832 205.65 158.832C205.65 158.832 207.038 154.166 204.578 150.194C202.118 146.222 196.741 144.447 196.741 144.447C196.741 144.447 195.354 149.113 197.814 153.085Z" fill="#F1F1F1"/>
<path d="M199.598 151.82C204.151 154.196 205.819 158.798 205.819 158.798C205.819 158.798 200.104 159.547 195.551 157.17C190.997 154.794 189.33 150.192 189.33 150.192C189.33 150.192 195.044 149.443 199.598 151.82Z" fill="#F1F1F1"/>
<path d="M135.613 156.082H132.42L130.901 145.851L135.614 145.851L135.613 156.082Z" fill="#FFB7B7"/>
<path d="M136.428 158.653L126.131 158.653V158.545C126.132 157.662 126.554 156.815 127.305 156.191C128.057 155.567 129.076 155.216 130.139 155.216H130.139L136.428 155.216L136.428 158.653Z" fill="#2F2E41"/>
<path d="M155.408 156.082H152.215L150.696 145.851L155.409 145.851L155.408 156.082Z" fill="#FFB7B7"/>
<path d="M156.222 158.653L145.926 158.653V158.545C145.926 157.662 146.348 156.815 147.1 156.191C147.852 155.567 148.871 155.216 149.934 155.216H149.934L156.222 155.216L156.222 158.653Z" fill="#2F2E41"/>
<path d="M146.136 98.4542L139.853 87.9521L141.471 79.2411L133.918 77.5103L133.137 89.1933L142.932 100.251C142.862 100.665 142.937 101.087 143.15 101.466C143.362 101.845 143.703 102.165 144.13 102.387C144.557 102.609 145.052 102.723 145.555 102.715C146.059 102.708 146.549 102.58 146.966 102.346C147.383 102.112 147.71 101.782 147.907 101.397C148.103 101.012 148.161 100.588 148.073 100.176C147.985 99.764 147.755 99.3821 147.411 99.0766C147.068 98.771 146.625 98.5548 146.136 98.4542V98.4542Z" fill="#FFB7B7"/>
<path d="M159.727 98.4542L166.009 87.9521L164.391 79.2411L171.945 77.5103L172.726 89.1933L162.931 100.251C163.001 100.665 162.925 101.087 162.713 101.466C162.5 101.845 162.16 102.165 161.733 102.387C161.306 102.609 160.811 102.723 160.307 102.715C159.804 102.708 159.314 102.58 158.897 102.346C158.479 102.112 158.153 101.782 157.956 101.397C157.76 101.012 157.702 100.588 157.79 100.176C157.878 99.764 158.107 99.3821 158.451 99.0766C158.795 98.771 159.238 98.5548 159.727 98.4542V98.4542Z" fill="#FFB7B7"/>
<path d="M155.534 62.5617C159.329 62.5617 162.405 60.0061 162.405 56.8536C162.405 53.7011 159.329 51.1455 155.534 51.1455C151.738 51.1455 148.662 53.7011 148.662 56.8536C148.662 60.0061 151.738 62.5617 155.534 62.5617Z" fill="#FFB9B9"/>
<path d="M148.714 56.8231C148.714 56.8231 147.968 55.8941 148.255 54.8936C148.426 54.3256 148.494 53.7395 148.456 53.1548C148.776 52.2881 149.179 51.4439 149.66 50.6299C150.262 49.7247 149.975 49.3436 151.868 49.0578C153.761 48.772 152.986 46.7235 157.976 48.9387C158.144 49.1339 158.378 49.2834 158.649 49.3682C158.919 49.4529 159.214 49.4693 159.496 49.4151C160.528 49.2483 160.901 50.4393 160.901 50.4393C160.901 50.4393 161.589 50.1059 161.847 50.5823C162.105 51.0587 163.945 50.2963 163.945 53.512C163.945 56.7277 161.851 59.6001 161.851 59.6001C161.851 59.6001 160.381 63.4542 156.968 62.9064C153.556 62.3585 153.062 62.69 150.717 59.012C150.238 60.1617 149.501 55.7968 148.714 56.8231Z" fill="#2F2E41"/>
<path d="M140.429 93.7368L139.633 96.3319C139.633 96.3319 135.88 97.8382 134.378 111.365L132.355 131.647L129.268 152.903L135.686 153.317L140.136 139.85L149.751 111.535L151.574 132.956L149.545 152.369L156.317 152.585L161.006 130.95C161.006 130.95 168.188 99.2595 163.555 98.3372L163.089 95.035L140.429 93.7368Z" fill="#2F2E41"/>
<path d="M138.944 69.3456L149.998 64.2852L159.381 64.7011L170.587 70.211L165.916 94.4411C165.916 94.4411 168.594 96.9275 160.502 96.1975C152.41 95.4675 139.332 94.8753 139.332 94.8753C139.332 94.8753 138.28 93.1417 140.527 92.8983C142.774 92.6549 140.895 92.7118 140.895 92.7118C140.895 92.7118 139.537 89.0907 140.895 88.3847L141.552 80.9478L138.944 69.3456Z" fill="#3F3D56"/>
<path d="M141.992 69.7215L138.944 69.3457L132.485 78.9164L142.979 82.7595L141.992 69.7215Z" fill="#3F3D56"/>
<path d="M166.996 71.4522L170.587 70.2109L174.158 83.6761L164.466 85.2009L166.996 71.4522Z" fill="#3F3D56"/>
<path d="M84.0884 159H224.712C224.789 159 224.862 158.975 224.916 158.93C224.97 158.885 225 158.825 225 158.761C225 158.698 224.97 158.637 224.916 158.592C224.862 158.548 224.789 158.522 224.712 158.522H84.0884C84.0121 158.522 83.9389 158.548 83.885 158.592C83.8311 158.637 83.8008 158.698 83.8008 158.761C83.8008 158.825 83.8311 158.885 83.885 158.93C83.9389 158.975 84.0121 159 84.0884 159Z" fill="#CBCBCB"/>
<path d="M69.018 94.98H32.496V110.268H69.018V94.98Z" fill="white"/>
<path d="M64.7028 98.894H36.8109V99.6794H64.7028V98.894Z" fill="#DC2E2E"/>
<path d="M64.7028 102.232H36.8109V103.017H64.7028V102.232Z" fill="#DC2E2E"/>
<path d="M64.7028 105.57H36.8109V106.355H64.7028V105.57Z" fill="#DC2E2E"/>
<path d="M69.3055 110.507H32.2084V94.7412H69.3055V110.507ZM32.7835 110.03H68.7304V95.219H32.7835V110.03Z" fill="#3F3D56"/>
<path d="M42.7731 75.9911C35.041 75.9963 27.4607 74.2088 20.8853 70.8296L20.7183 70.7436L20.8215 70.6049L42.6634 41.2412H84.4098V41.4045C84.4098 60.4757 65.7316 75.9911 42.7731 75.9911Z" fill="#DC2E2E"/>
<path d="M15.9893 63.5233L15.8551 63.4543C8.48574 59.6693 3.17311 53.6556 1.03686 46.6806C-1.0994 39.7056 0.107574 32.3141 4.40341 26.0638L4.48175 25.9502L33.642 39.7916L15.9893 63.5233Z" fill="#F1F1F1"/>
<path d="M84.4098 36.6087H42.5283L51.5569 2.63232L51.7487 2.66733C61.0089 4.36749 69.2934 8.64194 75.2323 14.7839C81.1711 20.9259 84.4087 28.5676 84.4098 36.4454V36.6087Z" fill="#DC2E2E"/>
<path d="M35.8575 31.2577L7.48035 17.7879L7.55662 17.6773C10.9969 12.6853 16.2663 8.73615 22.5971 6.40542C28.928 4.07469 35.9893 3.48412 42.7524 4.71978L42.9023 4.74714L35.8575 31.2577Z" fill="#F1F1F1"/>
<path d="M142.063 0.239258H105.541V15.5276H142.063V0.239258Z" fill="white"/>
<path d="M137.748 4.15234H109.856V4.93774H137.748V4.15234Z" fill="#DC2E2E"/>
<path d="M137.748 7.49023H109.856V8.27563H137.748V7.49023Z" fill="#DC2E2E"/>
<path d="M137.748 10.8281H109.856V11.6135H137.748V10.8281Z" fill="#DC2E2E"/>
<path d="M142.351 15.7661H105.253V0H142.351V15.7661ZM105.829 15.2883H141.775V0.47776H105.829V15.2883Z" fill="#3F3D56"/>
<path d="M51.1226 55.4126H50.5475V94.7412H51.1226V55.4126Z" fill="#3F3D56"/>
<path d="M105.399 7.90086L62.2223 24.123L62.4593 24.5584L105.636 8.33616L105.399 7.90086Z" fill="#3F3D56"/>
</g>
<defs>
<clipPath id="clip0_12_189">
<rect width="225" height="159" fill="white"/>
</clipPath>
</defs>
</svg>
