<svg width="225" height="159" viewBox="0 0 225 159" fill="none" xmlns="http://www.w3.org/2000/svg">
<g clip-path="url(#clip0_12_81)">
<path d="M80.5651 137.772C81.379 130.717 85.4352 123.765 91.6771 121.469C89.2155 128.731 89.216 136.698 91.6786 143.959C92.6377 146.756 93.9746 149.759 93.0724 152.578C92.5111 154.332 91.1379 155.674 89.6029 156.513C88.0678 157.352 86.3642 157.752 84.6819 158.144L84.3508 158.439C81.6802 151.938 79.7512 144.828 80.5651 137.772Z" fill="#F0F0F0"/>
<path d="M91.7391 121.602C88.1042 125.993 85.8449 131.507 85.2823 137.36C85.1405 138.618 85.1834 139.892 85.4096 141.136C85.6662 142.339 86.2171 143.447 87.0051 144.343C87.7242 145.195 88.5513 145.977 89.0658 147.002C89.3219 147.531 89.4715 148.112 89.5045 148.708C89.5376 149.304 89.4535 149.9 89.2577 150.459C88.8034 151.863 87.908 153.008 86.9964 154.095C85.9841 155.302 84.9149 156.538 84.4847 158.138C84.4325 158.331 84.1566 158.233 84.2087 158.039C84.9573 155.256 87.4636 153.675 88.6588 151.168C89.2165 149.998 89.4506 148.64 88.9278 147.406C88.4706 146.326 87.6183 145.519 86.8833 144.664C86.1027 143.801 85.5299 142.746 85.2148 141.59C84.9307 140.363 84.8423 139.093 84.9534 137.834C85.1617 134.995 85.7827 132.209 86.7937 129.579C87.9321 126.569 89.5397 123.792 91.5468 121.367C91.6711 121.217 91.8626 121.453 91.7391 121.602Z" fill="white"/>
<path d="M85.3605 135.464C84.4623 135.229 83.6708 134.657 83.1275 133.851C82.5841 133.045 82.3242 132.057 82.3943 131.064C82.4091 130.863 82.6995 130.878 82.6847 131.079C82.6179 132.004 82.86 132.925 83.3674 133.674C83.8748 134.424 84.614 134.953 85.4516 135.167C85.6336 135.213 85.5414 135.511 85.3605 135.464Z" fill="white"/>
<path d="M86.5877 143.963C88.21 142.919 89.4075 141.254 89.9416 139.3C89.9944 139.106 90.2704 139.205 90.2177 139.398C89.6583 141.43 88.4088 143.16 86.7184 144.243C86.5572 144.346 86.4273 144.065 86.5876 143.963L86.5877 143.963Z" fill="white"/>
<path d="M88.2017 126.866C88.5316 127.035 88.8954 127.113 89.2602 127.093C89.6251 127.073 89.9796 126.956 90.292 126.752C90.4519 126.647 90.5816 126.927 90.4228 127.032C90.0766 127.255 89.6849 127.385 89.2819 127.408C88.8788 127.431 88.4767 127.347 88.1105 127.164C88.0747 127.15 88.0452 127.121 88.028 127.084C88.0108 127.048 88.0073 127.005 88.0181 126.966C88.0304 126.926 88.0565 126.894 88.0909 126.875C88.1253 126.857 88.1651 126.853 88.2017 126.866Z" fill="white"/>
<path d="M110.703 134.071C110.605 134.14 110.507 134.209 110.409 134.28C109.094 135.212 107.852 136.257 106.695 137.406C106.604 137.493 106.513 137.583 106.425 137.673C103.663 140.473 101.408 143.801 99.7739 147.488C99.1248 148.955 98.5802 150.474 98.1449 152.031C97.5438 154.181 97.0507 156.564 95.8609 158.323C95.7386 158.508 95.6059 158.685 95.4634 158.852H84.7106C84.6862 158.839 84.6616 158.828 84.6371 158.815L84.2078 158.836C84.225 158.754 84.2445 158.669 84.2618 158.587C84.2716 158.54 84.2838 158.492 84.2937 158.445C84.301 158.413 84.3084 158.381 84.3133 158.352C84.3157 158.341 84.3182 158.331 84.3206 158.323C84.3255 158.294 84.3329 158.267 84.3379 158.241C84.4458 157.768 84.557 157.294 84.6715 156.821C84.6715 156.818 84.6715 156.818 84.6739 156.815C85.5547 153.211 86.7224 149.654 88.3538 146.401C88.4029 146.303 88.4519 146.202 88.5059 146.104C89.2488 144.642 90.1013 143.248 91.0549 141.936C91.5792 141.22 92.1368 140.532 92.7256 139.876C94.25 138.185 96.0117 136.762 97.9462 135.66C101.803 133.465 106.268 132.624 110.389 133.965C110.495 134 110.598 134.034 110.703 134.071Z" fill="#F0F0F0"/>
<path d="M110.679 134.218C105.325 135.365 100.441 138.301 96.7229 142.609C95.9071 143.522 95.2298 144.567 94.716 145.706C94.2487 146.834 94.07 148.076 94.1984 149.303C94.2969 150.45 94.5209 151.611 94.359 152.763C94.2681 153.352 94.0627 153.913 93.7564 154.41C93.4501 154.907 93.0498 155.329 92.5817 155.648C91.4345 156.474 90.0802 156.807 88.7453 157.083C87.2631 157.39 85.7191 157.683 84.4821 158.681C84.3322 158.802 84.1669 158.544 84.3166 158.423C86.4688 156.687 89.3528 157.051 91.7072 155.826C92.8059 155.254 93.7512 154.321 94.0234 152.996C94.2614 151.837 94.0314 150.64 93.9224 149.48C93.7807 148.284 93.9127 147.07 94.3068 145.943C94.7652 144.778 95.404 143.707 96.1959 142.774C97.9476 140.642 99.9992 138.821 102.276 137.377C104.865 135.713 107.7 134.539 110.657 133.906C110.84 133.867 110.861 134.179 110.679 134.218V134.218Z" fill="white"/>
<path d="M97.8444 141.146C97.2585 140.375 96.9458 139.405 96.9622 138.409C96.9785 137.412 97.3229 136.455 97.9337 135.707C98.0577 135.556 98.2811 135.757 98.1568 135.908C97.5868 136.603 97.2662 137.495 97.2527 138.423C97.2392 139.351 97.5338 140.253 98.0833 140.967C98.2026 141.122 97.9629 141.3 97.8444 141.146Z" fill="white"/>
<path d="M94.0774 148.728C95.956 148.948 97.8421 148.396 99.3597 147.182C99.51 147.062 99.6753 147.32 99.5252 147.44C97.9438 148.699 95.9799 149.27 94.0255 149.037C93.8393 149.014 93.8922 148.706 94.0774 148.728Z" fill="white"/>
<path d="M104.915 136.125C105.084 136.474 105.331 136.773 105.633 136.994C105.936 137.214 106.284 137.351 106.648 137.391C106.834 137.41 106.781 137.719 106.596 137.699C106.194 137.653 105.81 137.502 105.475 137.259C105.14 137.015 104.866 136.688 104.676 136.304C104.655 136.269 104.647 136.227 104.654 136.187C104.661 136.146 104.682 136.11 104.713 136.086C104.744 136.062 104.783 136.053 104.821 136.061C104.859 136.068 104.893 136.091 104.915 136.125Z" fill="white"/>
<path d="M116.81 1.75342C116.355 1.75397 115.918 1.94919 115.596 2.29626C115.274 2.64332 115.093 3.11388 115.093 3.60471V81.8878C115.093 82.3786 115.274 82.8492 115.596 83.1962C115.918 83.5433 116.355 83.7385 116.81 83.739H223.283C223.738 83.7384 224.174 83.5432 224.496 83.1962C224.818 82.8492 224.999 82.3786 225 81.8878V3.60471C224.999 3.11389 224.818 2.64334 224.496 2.29628C224.174 1.94922 223.738 1.75399 223.283 1.75342H116.81Z" fill="#E6E6E6"/>
<path d="M119.263 4.39795C118.808 4.3985 118.372 4.59372 118.05 4.94079C117.728 5.28785 117.547 5.75842 117.546 6.24924V79.2429C117.547 79.7337 117.728 80.2043 118.05 80.5513C118.372 80.8984 118.808 81.0936 119.263 81.0942H220.829C221.285 81.0936 221.721 80.8984 222.043 80.5513C222.365 80.2042 222.546 79.7337 222.547 79.2429V6.24924C222.546 5.75842 222.365 5.28787 222.043 4.94081C221.721 4.59375 221.285 4.39852 220.829 4.39795H119.263Z" fill="white"/>
<path opacity="0.1" d="M212.976 20.3595C210.64 19.3764 208.122 21.8418 207.574 24.4796C207.027 27.1174 207.727 29.8454 207.882 32.5432C208.036 35.2411 207.38 38.3738 205.147 39.6037C202.58 41.018 199.568 39.1793 196.697 38.8993C195.263 38.7766 193.824 39.0477 192.514 39.6874C191.205 40.327 190.067 41.3143 189.207 42.5568C186.839 46.0592 186.959 51.1448 184.157 54.2525C181.722 56.9526 177.754 57.3042 174.348 56.4692C170.942 55.6342 167.811 53.8203 164.462 52.7509C161.112 51.6815 157.236 51.4582 154.365 53.6045C151.369 55.8452 150.036 60.2372 146.746 61.9343C144.42 63.1343 141.667 62.6765 139.178 61.9499C136.689 61.2233 134.18 60.243 131.61 60.4762C129.041 60.7094 126.362 62.6206 126.159 65.3917L214.345 65.1262C214.745 52.5782 215.146 40.0301 215.547 27.4821C215.634 24.7562 215.332 21.3514 212.976 20.3595Z" fill="#DC2E2E"/>
<path d="M80.9956 87.6895C80.8421 87.2533 80.7791 86.7861 80.8111 86.3209C80.8431 85.8556 80.9694 85.4035 81.181 84.9966C81.3927 84.5896 81.6845 84.2376 82.036 83.9654C82.3874 83.6931 82.79 83.5073 83.2153 83.4209L84.7644 72.2036L88.8353 76.1371L86.7401 86.1862C86.8273 86.9661 86.6462 87.7533 86.231 88.3988C85.8158 89.0443 85.1953 89.5032 84.4872 89.6885C83.7792 89.8738 83.0326 89.7726 82.3891 89.4042C81.7456 89.0358 81.2498 88.4257 80.9956 87.6895Z" fill="#FFB6B6"/>
<path d="M52.5883 89.3921C52.8527 89.0227 53.0387 88.5953 53.1333 88.1401C53.2279 87.6848 53.2287 87.2127 53.1357 86.757C53.0427 86.3014 52.8582 85.8732 52.5951 85.5028C52.3321 85.1323 51.9969 84.8285 51.6131 84.6128L53.1499 73.3936L48.1954 75.8844L47.4956 86.1566C47.2022 86.8756 47.1637 87.6857 47.3873 88.4333C47.6109 89.1809 48.0811 89.8141 48.7088 90.2129C49.3366 90.6117 50.0782 90.7484 50.7932 90.5972C51.5083 90.4459 52.1469 90.0171 52.5883 89.3921V89.3921Z" fill="#FFB6B6"/>
<path d="M74.3657 153.899L78.9625 153.899L81.1493 134.785L74.365 134.786L74.3657 153.899Z" fill="#FFB6B6"/>
<path d="M73.1931 152.281L82.2459 152.281H82.2463C83.7763 152.281 85.2436 152.936 86.3255 154.102C87.4074 155.269 88.0153 156.851 88.0154 158.5V158.702L73.1934 158.703L73.1931 152.281Z" fill="#2F2E41"/>
<path d="M49.8329 153.899L54.4296 153.899L56.6165 134.785L49.8322 134.786L49.8329 153.899Z" fill="#FFB6B6"/>
<path d="M48.6603 152.281L57.7131 152.281H57.7134C59.2435 152.281 60.7108 152.936 61.7927 154.102C62.8746 155.269 63.4825 156.851 63.4826 158.5V158.702L48.6605 158.703L48.6603 152.281Z" fill="#2F2E41"/>
<path d="M71.4657 23.4279C76.0518 23.4279 79.7695 19.4201 79.7695 14.4762C79.7695 9.53224 76.0518 5.52441 71.4657 5.52441C66.8796 5.52441 63.1619 9.53224 63.1619 14.4762C63.1619 19.4201 66.8796 23.4279 71.4657 23.4279Z" fill="#FFB6B6"/>
<path d="M51.8091 79.0133C51.8091 79.0133 51.9313 119.071 51.3381 119.71C50.745 120.35 48.6395 144.306 48.6395 144.306H55.9994C56.49 144.306 69.0099 92.1212 69.0099 92.1212C69.0099 92.1212 74.3481 120.255 73.4584 121.854C72.5686 123.452 73.2622 144.408 73.7549 146.151C73.7549 146.151 79.9391 148.285 80.5322 146.686C81.1254 145.088 82.0042 123.413 82.0042 123.413L83.7215 87.4451L83.759 78.0542L51.8091 79.0133Z" fill="#2F2E41"/>
<path d="M85.9142 32.9756H89.2183C89.4611 32.9755 89.6967 33.0644 89.8863 33.2278C90.076 33.3912 90.2084 33.6194 90.2618 33.8747C90.7716 36.3086 92.0855 43.2077 91.8455 48.6411C91.5489 55.3549 90.9558 65.9052 90.9558 66.8643C90.9558 67.8234 87.9901 82.5299 87.9901 82.5299C87.9901 82.5299 85.9513 78.9174 83.7085 79.6047L84.1348 66.5446L84.7279 61.1097L83.8382 51.5185L85.9142 32.9756Z" fill="#DC2E2E"/>
<path d="M64.858 27.1216C64.858 27.1216 54.3299 30.897 53.1437 34.094C51.9574 37.2911 57.7167 60.4684 57.7167 60.4684C57.7167 60.4684 55.5088 71.0472 52.5505 81.0907C51.2043 85.6614 64.0518 81.7482 69.9832 79.5102C73.6585 78.1361 80.4564 80.2463 84.2831 79.4921C84.2831 79.4921 84.8762 70.8601 84.2831 69.2616C83.6899 67.6631 82.2071 68.6222 83.0968 66.3842C83.9865 64.1463 83.6899 63.8266 83.3934 62.8675C83.0968 61.9084 83.9865 60.6295 83.9865 59.3507C83.9865 58.0719 83.69 55.1946 83.69 55.1946C83.69 55.1946 91.6972 35.0531 89.9178 33.1349C88.1384 31.2167 79.0809 27.5206 79.0809 27.5206C79.0809 27.5206 79.3056 27.674 64.858 27.1216Z" fill="#DC2E2E"/>
<path d="M55.0713 32.9756L54.0181 33.5433C53.6081 33.7643 53.2511 34.0846 52.9751 34.4791C52.699 34.8736 52.5114 35.3316 52.427 35.8172L48.2503 59.8308L47.3606 82.5299C47.3606 82.5299 52.4022 80.9314 53.8851 82.5299C53.8851 82.5299 52.4022 77.7343 53.2919 76.1358C54.1816 74.5372 54.1816 72.2993 54.1816 72.2993C54.1816 72.2993 53.5885 72.2993 55.0713 70.7008C56.5541 69.1023 56.8507 68.4628 56.5541 68.1432C56.2576 67.8235 55.961 64.9461 55.961 64.6264C55.961 64.3067 58.9267 42.8865 58.9267 42.8865L55.0713 32.9756Z" fill="#DC2E2E"/>
<path d="M125.737 65.0831C125.607 65.0831 125.482 65.0274 125.39 64.9282C125.298 64.829 125.246 64.6945 125.246 64.5542C125.246 64.4139 125.298 64.2794 125.39 64.1802C125.482 64.081 125.607 64.0253 125.737 64.0253C148.409 64.0253 170.031 59.1315 186.62 50.2454C202.176 41.9128 212.088 30.6134 213.816 19.2443C213.826 19.1757 213.849 19.1099 213.883 19.0507C213.917 18.9915 213.961 18.9401 214.014 18.8994C214.066 18.8587 214.125 18.8295 214.188 18.8135C214.251 18.7975 214.316 18.795 214.379 18.8061C214.443 18.8173 214.504 18.8419 214.559 18.8784C214.614 18.915 214.661 18.9629 214.699 19.0193C214.737 19.0758 214.764 19.1397 214.778 19.2073C214.793 19.275 214.795 19.3452 214.785 19.4138L214.785 19.4153C213.887 25.3211 210.974 31.1142 206.126 36.634C201.344 42.078 194.928 46.9764 187.057 51.1928C170.335 60.1502 148.557 65.0831 125.737 65.0831Z" fill="#DC2E2E"/>
<path d="M218.867 65.1903H125.151V15.2773H125.642V64.6613H218.867V65.1903Z" fill="#E6E6E6"/>
<path d="M63.6391 17.4918C63.2595 16.4875 63.1985 15.3762 63.4655 14.3307C64.1437 16.2701 65.4914 15.6781 66.178 14.7686C67.0392 13.628 66.7912 10.994 68.1509 10.8761C69.5106 10.7582 70.8703 11.0356 72.2101 11.3118C71.9881 10.902 71.7661 10.4922 71.5441 10.0824C72.5133 10.1473 73.4825 10.2121 74.4517 10.277C74.1632 9.76511 73.8746 9.25328 73.5859 8.74146C74.9035 9.24057 76.1087 10.0334 77.123 11.0681C78.1374 12.1029 78.9381 13.3565 79.473 14.7472C79.9757 13.87 80.2888 12.8822 80.3893 11.8568C80.4897 10.8314 80.3748 9.7948 80.0532 8.82377C79.7315 7.85275 79.2113 6.97218 78.5311 6.24732C77.8509 5.52246 77.0281 4.97189 76.1237 4.63637C76.506 4.09562 76.8883 3.55488 77.2706 3.01415L69.4885 2.18631C69.4691 1.78195 69.5415 1.37859 69.6993 1.01116C69.8571 0.643724 70.0956 0.323293 70.3941 0.0776063C69.375 -0.170467 68.2942 0.201666 67.4282 0.831626C66.5623 1.46159 65.8736 2.33031 65.1965 3.18784C64.1712 4.48626 63.1335 5.80502 62.4623 7.34901C61.7739 8.99272 61.5195 10.8093 61.7272 12.5989C61.9348 14.3884 62.5964 16.0815 63.6391 17.4918ZM63.7331 13.5525L63.7333 13.552L63.7411 13.5505L63.7331 13.5525Z" fill="#2F2E41"/>
<path d="M159.092 159H0.292118C0.214793 159 0.140713 158.967 0.0861145 158.908C0.0315162 158.849 0.000854492 158.769 0.000854492 158.686C0.000854492 158.602 0.0315162 158.522 0.0861145 158.463C0.140713 158.404 0.214793 158.371 0.292118 158.371H159.092C159.169 158.371 159.243 158.404 159.298 158.463C159.352 158.522 159.383 158.602 159.383 158.686C159.383 158.769 159.352 158.849 159.298 158.908C159.243 158.967 159.169 159 159.092 159Z" fill="#CACACA"/>
</g>
<defs>
<clipPath id="clip0_12_81">
<rect width="225" height="159" fill="white"/>
</clipPath>
</defs>
</svg>
