<svg width="225" height="159" viewBox="0 0 225 159" fill="none" xmlns="http://www.w3.org/2000/svg">
<path d="M15.7136 141.539C12.0248 143.494 8.25264 145.512 5.69834 148.344C3.14422 151.175 2.02924 155.041 4.08157 158.105L4.02863 158.296C5.58412 158.717 7.25421 158.822 8.87801 158.602C10.5018 158.382 12.0246 157.844 13.2996 157.039C16.5467 154.941 17.5648 151.485 18.3931 148.286L20.8433 138.821L15.7136 141.539Z" fill="#F0F0F0"/>
<path d="M19.2665 151.084C16.8058 151.503 14.2845 151.941 12.1745 153.002C10.0646 154.063 8.42102 155.897 8.64929 157.829L8.56921 157.92C9.26469 158.392 10.1066 158.719 11.0138 158.869C11.921 159.018 12.863 158.985 13.7489 158.773C16.0184 158.208 17.4989 156.572 18.81 155.038L22.6883 150.501L19.2665 151.084Z" fill="#F0F0F0"/>
<path d="M224.695 8.44939H14.5899C14.5092 8.44917 14.4319 8.42435 14.375 8.38035C14.318 8.33636 14.286 8.27679 14.286 8.21468C14.286 8.15258 14.318 8.093 14.375 8.04901C14.4319 8.00502 14.5092 7.98019 14.5899 7.97998H224.695C224.776 7.98019 224.853 8.00502 224.91 8.04901C224.967 8.093 224.999 8.15258 224.999 8.21468C224.999 8.27679 224.967 8.33636 224.91 8.38035C224.853 8.42435 224.776 8.44917 224.695 8.44939Z" fill="#CACACA"/>
<path d="M21.4535 5.16341C23.306 5.16341 24.8078 4.00754 24.8078 2.5817C24.8078 1.15587 23.306 0 21.4535 0C19.6009 0 18.0991 1.15587 18.0991 2.5817C18.0991 4.00754 19.6009 5.16341 21.4535 5.16341Z" fill="#3F3D56"/>
<path d="M33.0413 5.16341C34.8938 5.16341 36.3956 4.00754 36.3956 2.5817C36.3956 1.15587 34.8938 0 33.0413 0C31.1887 0 29.6869 1.15587 29.6869 2.5817C29.6869 4.00754 31.1887 5.16341 33.0413 5.16341Z" fill="#3F3D56"/>
<path d="M44.6291 5.16341C46.4817 5.16341 47.9835 4.00754 47.9835 2.5817C47.9835 1.15587 46.4817 0 44.6291 0C42.7766 0 41.2748 1.15587 41.2748 2.5817C41.2748 4.00754 42.7766 5.16341 44.6291 5.16341Z" fill="#3F3D56"/>
<path d="M217.752 1.57893H209.519C209.357 1.57893 209.202 1.52948 209.088 1.44145C208.973 1.35342 208.909 1.23403 208.909 1.10954C208.909 0.985043 208.973 0.865648 209.088 0.777618C209.202 0.689589 209.357 0.640137 209.519 0.640137H217.752C217.914 0.640137 218.069 0.689589 218.184 0.777618C218.298 0.865648 218.362 0.985043 218.362 1.10954C218.362 1.23403 218.298 1.35342 218.184 1.44145C218.069 1.52948 217.914 1.57893 217.752 1.57893Z" fill="#3F3D56"/>
<path d="M217.752 3.33968H209.519C209.357 3.33968 209.202 3.29022 209.088 3.2022C208.973 3.11417 208.909 2.99477 208.909 2.87028C208.909 2.74579 208.973 2.62639 209.088 2.53836C209.202 2.45034 209.357 2.40088 209.519 2.40088H217.752C217.914 2.40088 218.069 2.45034 218.184 2.53836C218.298 2.62639 218.362 2.74579 218.362 2.87028C218.362 2.99477 218.298 3.11417 218.184 3.2022C218.069 3.29022 217.914 3.33968 217.752 3.33968Z" fill="#3F3D56"/>
<path d="M217.752 5.09944H209.519C209.357 5.09944 209.202 5.04999 209.088 4.96196C208.973 4.87393 208.909 4.75454 208.909 4.63004C208.909 4.50555 208.973 4.38616 209.088 4.29813C209.202 4.2101 209.357 4.16064 209.519 4.16064H217.752C217.914 4.16107 218.068 4.21072 218.182 4.2987C218.296 4.38668 218.36 4.50583 218.36 4.63004C218.36 4.75426 218.296 4.87341 218.182 4.96139C218.068 5.04937 217.914 5.09901 217.752 5.09944Z" fill="#3F3D56"/>
<path d="M157.374 18.5137H18.015V82.8216H157.374V18.5137Z" fill="#F0F0F0"/>
<path d="M218.362 18.5137H174.45V38.777H218.362V18.5137Z" fill="#F0F0F0"/>
<path d="M209.601 48.0857H183.474C183.148 48.0857 182.835 47.9859 182.604 47.8083C182.373 47.6307 182.244 47.3898 182.244 47.1386C182.244 46.8874 182.373 46.6465 182.604 46.4688C182.835 46.2912 183.148 46.1914 183.474 46.1914H209.601C209.928 46.1914 210.241 46.2912 210.472 46.4688C210.702 46.6465 210.832 46.8874 210.832 47.1386C210.832 47.3898 210.702 47.6307 210.472 47.8083C210.241 47.9859 209.928 48.0857 209.601 48.0857H209.601Z" fill="#E4E4E4"/>
<path d="M205.389 44.844H187.687C187.36 44.844 187.047 44.7443 186.817 44.5666C186.586 44.389 186.456 44.1481 186.456 43.8969C186.456 43.6457 186.586 43.4048 186.817 43.2271C187.047 43.0495 187.36 42.9497 187.687 42.9497H205.389C205.715 42.9497 206.028 43.0495 206.259 43.2271C206.49 43.4048 206.62 43.6457 206.62 43.8969C206.62 44.1481 206.49 44.389 206.259 44.5666C206.028 44.7443 205.715 44.844 205.389 44.844Z" fill="#E4E4E4"/>
<path d="M218.362 55.3618H174.45V75.6251H218.362V55.3618Z" fill="#F0F0F0"/>
<path d="M209.601 84.9339H183.474C183.148 84.9339 182.835 84.8341 182.604 84.6565C182.373 84.4788 182.244 84.2379 182.244 83.9867C182.244 83.7355 182.373 83.4946 182.604 83.317C182.835 83.1393 183.148 83.0396 183.474 83.0396H209.601C209.928 83.0396 210.241 83.1393 210.472 83.317C210.702 83.4946 210.832 83.7355 210.832 83.9867C210.832 84.2379 210.702 84.4788 210.472 84.6565C210.241 84.8341 209.928 84.9339 209.601 84.9339H209.601Z" fill="#E4E4E4"/>
<path d="M205.389 81.6917H187.687C187.36 81.6917 187.047 81.5919 186.817 81.4143C186.586 81.2367 186.456 80.9957 186.456 80.7445C186.456 80.4933 186.586 80.2524 186.817 80.0748C187.047 79.8972 187.36 79.7974 187.687 79.7974H205.389C205.715 79.7978 206.027 79.8978 206.258 80.0754C206.488 80.2529 206.617 80.4936 206.617 80.7445C206.617 80.9955 206.488 81.2361 206.258 81.4137C206.027 81.5913 205.715 81.6913 205.389 81.6917Z" fill="#E4E4E4"/>
<path d="M90.116 53.1089C95.8594 53.1089 100.515 49.5254 100.515 45.105C100.515 40.6845 95.8594 37.1011 90.116 37.1011C84.3726 37.1011 79.7167 40.6845 79.7167 45.105C79.7167 49.5254 84.3726 53.1089 90.116 53.1089Z" fill="#9E616A"/>
<path d="M107.638 82.8215H81.562L83.0255 57.4434L83.2056 57.2978L85.7946 55.1948H94.0281L97.0836 57.4714L97.3244 57.6523L103.826 62.4471L107.638 82.8215Z" fill="#DC2E2E"/>
<path d="M88.78 82.8213H68.9617C68.8307 73.1094 68.7269 65.782 68.7269 65.782L69.7394 65.3079L69.7455 65.3056L80.8606 60.1117L83.1935 57.1943L83.2057 57.2976L83.8918 63.4468C83.8918 63.4468 87.6211 72.7198 88.78 82.8213Z" fill="#2F2E41"/>
<path d="M115.746 82.8213H98.1112C97.1688 79.5308 96.6779 76.3975 96.8914 73.7853C97.7574 63.1135 95.7601 57.1943 96.6261 57.1943L97.0835 57.4713L102.524 60.7782L109.687 62.799L114.657 64.2025L115.523 64.4466V64.7681C115.526 66.3829 115.548 73.8815 115.746 82.8213Z" fill="#2F2E41"/>
<path d="M80.2777 47.6089C80.2777 47.6089 81.1612 46.4146 80.9558 42.425C80.7504 38.4354 88.6438 40.6919 95.2396 40.3113C101.835 39.9307 100.439 46.972 100.439 46.972C100.439 46.972 100.915 46.5535 101.934 43.1551C102.953 39.7568 100.639 36.3702 100.639 36.3702C99.9581 32.7992 96.2866 33.9437 96.2866 33.9437C98.0547 34.4735 97.7151 35.6062 97.7151 35.6062C96.2184 33.5866 92.5469 34.7311 92.5469 34.7311C87.6501 32.3661 82.6873 35.4805 82.6873 35.4805C76.7718 36.5138 80.241 40.1346 80.241 40.1346C74.2919 42.4485 80.2777 47.6089 80.2777 47.6089Z" fill="#2F2E41"/>
<path d="M63.2197 82.8213C63.7258 75.0316 64.1131 68.9201 63.9606 68.4483C63.5338 67.1363 69.5564 65.3596 69.7393 65.308L69.7423 65.3057H69.7454L70.8951 65.7821L71.7366 82.8213H63.2197Z" fill="#2F2E41"/>
<path d="M119.893 82.8218H110.943L108.382 63.3487L109.437 62.7549C109.437 62.7549 109.528 62.7713 109.687 62.7995C110.507 62.9567 113.154 63.4895 114.657 64.203C114.99 64.3476 115.284 64.5395 115.523 64.7686C115.67 64.9035 115.743 65.0767 115.728 65.2521C115.651 65.8036 117.603 73.6004 119.893 82.8218Z" fill="#2F2E41"/>
<path d="M134.96 90.6841H40.4284C40.0648 90.6845 39.7163 90.796 39.4595 90.994C39.2026 91.1921 39.0583 91.4604 39.0583 91.7402C39.0583 92.0201 39.2026 92.2884 39.4595 92.4865C39.7163 92.6845 40.0648 92.7959 40.4284 92.7964H134.96C135.141 92.7966 135.319 92.7695 135.486 92.7165C135.653 92.6635 135.805 92.5858 135.932 92.4877C136.06 92.3896 136.161 92.2731 136.23 92.1448C136.299 92.0166 136.335 91.8791 136.335 91.7402C136.335 91.6014 136.299 91.4639 136.23 91.3357C136.161 91.2074 136.06 91.0909 135.932 90.9928C135.805 90.8947 135.653 90.817 135.486 90.764C135.319 90.711 135.141 90.6839 134.96 90.6841Z" fill="#CACACA"/>
<path d="M109.345 90.6841V92.7964H40.4284C40.0648 92.7959 39.7163 92.6845 39.4595 92.4864C39.2026 92.2884 39.0583 92.0201 39.0583 91.7402C39.0583 91.4604 39.2026 91.1921 39.4595 90.994C39.7163 90.796 40.0648 90.6845 40.4284 90.6841H109.345Z" fill="#3F3D56"/>
<path d="M109.345 93.8525C110.861 93.8525 112.09 92.9068 112.09 91.7402C112.09 90.5736 110.861 89.6279 109.345 89.6279C107.83 89.6279 106.601 90.5736 106.601 91.7402C106.601 92.9068 107.83 93.8525 109.345 93.8525Z" fill="#3F3D56"/>
<path d="M87.6944 109.343C86.5739 109.343 85.4785 109.087 84.5469 108.608C83.6152 108.129 82.8891 107.448 82.4603 106.651C82.0315 105.854 81.9193 104.978 82.1379 104.132C82.3565 103.286 82.8961 102.509 83.6884 101.899C84.4807 101.289 85.4901 100.874 86.5891 100.706C87.6881 100.538 88.8272 100.624 89.8624 100.954C90.8976 101.284 91.7824 101.843 92.4049 102.56C93.0274 103.277 93.3597 104.12 93.3597 104.982C93.358 106.138 92.7606 107.247 91.6985 108.064C90.6364 108.882 89.1964 109.341 87.6944 109.343ZM87.6944 100.957C86.6601 100.957 85.649 101.194 84.789 101.636C83.929 102.078 83.2587 102.707 82.8629 103.442C82.4671 104.178 82.3635 104.987 82.5653 105.768C82.7671 106.548 83.2652 107.266 83.9965 107.828C84.7279 108.391 85.6597 108.775 86.6741 108.93C87.6886 109.085 88.74 109.006 89.6956 108.701C90.6512 108.396 91.4679 107.88 92.0426 107.219C92.6172 106.557 92.9239 105.778 92.9239 104.982C92.9223 103.915 92.3708 102.892 91.3904 102.138C90.4101 101.383 89.0808 100.959 87.6944 100.958V100.957Z" fill="#DC2E2E"/>
<path d="M86.9462 107.33C86.8884 107.33 86.833 107.313 86.7921 107.281C86.7512 107.25 86.7283 107.207 86.7283 107.163V102.802C86.728 102.78 86.7334 102.758 86.7442 102.738C86.755 102.717 86.7711 102.698 86.7913 102.683C86.8116 102.667 86.8357 102.654 86.8623 102.646C86.8889 102.637 86.9174 102.633 86.9462 102.633C86.975 102.633 87.0035 102.637 87.0301 102.646C87.0567 102.654 87.0808 102.667 87.101 102.683C87.1213 102.698 87.1373 102.717 87.1481 102.738C87.1589 102.758 87.1644 102.78 87.1641 102.802V107.163C87.1641 107.207 87.1411 107.25 87.1003 107.281C87.0594 107.313 87.004 107.33 86.9462 107.33Z" fill="#DC2E2E"/>
<path d="M88.4425 107.33C88.3847 107.33 88.3293 107.312 88.2884 107.281C88.2476 107.25 88.2246 107.207 88.2246 107.162V102.802C88.2244 102.78 88.2298 102.758 88.2406 102.737C88.2515 102.717 88.2675 102.698 88.2877 102.682C88.308 102.667 88.3321 102.654 88.3587 102.646C88.3852 102.637 88.4137 102.633 88.4425 102.633C88.4713 102.633 88.4998 102.637 88.5264 102.646C88.553 102.654 88.5771 102.667 88.5973 102.682C88.6176 102.698 88.6336 102.717 88.6444 102.737C88.6553 102.758 88.6607 102.78 88.6604 102.802V107.162C88.6604 107.207 88.6375 107.25 88.5966 107.281C88.5558 107.312 88.5003 107.33 88.4425 107.33Z" fill="#DC2E2E"/>
<path d="M61.746 104.982C61.746 104.12 62.0782 103.277 62.7007 102.56C63.3233 101.843 64.2081 101.284 65.2433 100.954C66.2785 100.624 67.4176 100.538 68.5165 100.706C69.6155 100.874 70.6249 101.289 71.4172 101.899C72.2095 102.509 72.7491 103.286 72.9677 104.132C73.1863 104.978 73.0741 105.854 72.6453 106.651C72.2165 107.448 71.4904 108.129 70.5587 108.608C69.6271 109.087 68.5318 109.343 67.4113 109.343C65.9093 109.341 64.4693 108.882 63.4072 108.064C62.3451 107.247 61.7477 106.138 61.746 104.982ZM62.1818 104.982C62.1818 105.778 62.4885 106.557 63.0631 107.219C63.6377 107.88 64.4545 108.396 65.41 108.701C66.3656 109.006 67.4171 109.085 68.4315 108.93C69.4459 108.775 70.3778 108.391 71.1091 107.828C71.8405 107.266 72.3385 106.548 72.5403 105.768C72.7421 104.987 72.6385 104.178 72.2427 103.442C71.8469 102.707 71.1766 102.078 70.3166 101.636C69.4566 101.194 68.4456 100.958 67.4113 100.958C66.0248 100.959 64.6956 101.383 63.7152 102.138C62.7348 102.892 62.1833 103.915 62.1818 104.982H62.1818Z" fill="#3F3D56"/>
<path d="M69.8582 106.45C69.8981 106.45 69.9369 106.44 69.9686 106.422C70.0003 106.403 70.0231 106.377 70.0334 106.347C70.0438 106.317 70.0411 106.286 70.0258 106.257C70.0106 106.229 69.9836 106.205 69.949 106.19L67.231 104.982L69.949 103.774C69.9906 103.756 70.021 103.726 70.0335 103.69C70.0459 103.654 70.0394 103.616 70.0154 103.584C69.9913 103.552 69.9518 103.528 69.9053 103.519C69.8589 103.509 69.8094 103.514 69.7678 103.533L66.778 104.861C66.7504 104.874 66.7275 104.891 66.7116 104.912C66.6957 104.934 66.6874 104.958 66.6874 104.982C66.6874 105.007 66.6957 105.031 66.7116 105.052C66.7275 105.073 66.7504 105.091 66.778 105.103L69.7678 106.432C69.7953 106.444 69.8265 106.45 69.8582 106.45Z" fill="#3F3D56"/>
<path d="M65.8493 106.935C65.8973 106.935 65.9434 106.92 65.9774 106.894C66.0114 106.868 66.0305 106.832 66.0305 106.795V103.169C66.0305 103.132 66.0114 103.097 65.9774 103.071C65.9434 103.044 65.8973 103.03 65.8493 103.03C65.8012 103.03 65.7551 103.044 65.7212 103.071C65.6872 103.097 65.6681 103.132 65.6681 103.169V106.795C65.6681 106.832 65.6872 106.868 65.7212 106.894C65.7551 106.92 65.8012 106.935 65.8493 106.935Z" fill="#3F3D56"/>
<path d="M107.978 109.343C106.857 109.343 105.762 109.087 104.83 108.608C103.898 108.129 103.172 107.448 102.743 106.651C102.315 105.854 102.203 104.978 102.421 104.132C102.64 103.286 103.179 102.509 103.972 101.899C104.764 101.289 105.773 100.874 106.872 100.706C107.971 100.538 109.11 100.624 110.146 100.954C111.181 101.284 112.066 101.843 112.688 102.56C113.311 103.277 113.643 104.12 113.643 104.982C113.641 106.138 113.044 107.247 111.982 108.064C110.92 108.882 109.48 109.341 107.978 109.343ZM107.978 100.957C106.943 100.957 105.932 101.194 105.072 101.636C104.212 102.078 103.542 102.707 103.146 103.442C102.75 104.178 102.647 104.987 102.849 105.768C103.05 106.548 103.548 107.266 104.28 107.828C105.011 108.391 105.943 108.775 106.957 108.93C107.972 109.085 109.023 109.006 109.979 108.701C110.934 108.396 111.751 107.88 112.326 107.219C112.9 106.557 113.207 105.778 113.207 104.982C113.205 103.915 112.654 102.892 111.674 102.138C110.693 101.383 109.364 100.959 107.978 100.958V100.957Z" fill="#3F3D56"/>
<path d="M105.53 106.45C105.491 106.45 105.452 106.44 105.42 106.421C105.388 106.403 105.366 106.376 105.355 106.347C105.345 106.317 105.348 106.286 105.363 106.257C105.378 106.229 105.405 106.205 105.44 106.19L108.158 104.982L105.44 103.774C105.398 103.756 105.368 103.725 105.356 103.69C105.343 103.654 105.35 103.616 105.374 103.584C105.398 103.552 105.437 103.529 105.484 103.519C105.53 103.509 105.579 103.514 105.621 103.533L108.611 104.861C108.638 104.873 108.661 104.891 108.677 104.912C108.693 104.933 108.701 104.958 108.701 104.982C108.701 105.006 108.693 105.031 108.677 105.052C108.661 105.073 108.638 105.091 108.611 105.103L105.621 106.431C105.593 106.444 105.562 106.45 105.53 106.45Z" fill="#3F3D56"/>
<path d="M109.539 106.935C109.491 106.935 109.445 106.92 109.411 106.894C109.377 106.868 109.358 106.832 109.358 106.795V103.169C109.358 103.132 109.377 103.097 109.411 103.071C109.445 103.044 109.491 103.03 109.539 103.03C109.588 103.03 109.634 103.044 109.668 103.071C109.702 103.097 109.721 103.132 109.721 103.169V106.795C109.721 106.832 109.702 106.868 109.668 106.894C109.634 106.92 109.588 106.935 109.539 106.935Z" fill="#3F3D56"/>
<path d="M33.1928 108.269C32.8934 108.038 32.6633 107.759 32.5189 107.452C32.3745 107.146 32.3192 106.818 32.357 106.493C32.3947 106.168 32.5246 105.854 32.7374 105.572C32.9503 105.29 33.2409 105.047 33.5888 104.86L30.8014 97.2261L35.9019 98.4794L37.7669 105.537C38.1349 106.008 38.2658 106.566 38.1348 107.106C38.0038 107.646 37.6201 108.13 37.0563 108.466C36.4925 108.803 35.7877 108.969 35.0757 108.933C34.3636 108.896 33.6937 108.66 33.1928 108.269Z" fill="#FFB6B6"/>
<path d="M31.8296 70.233L30.7731 69.3867C30.7731 69.3867 27.5065 71.1136 28.1977 76.4667C28.7082 80.4207 27.095 82.0975 27.2752 93.59L31.8296 104.115L37.0973 101.99L33.2862 89.0032L31.8296 70.233Z" fill="#DC2E2E"/>
<path d="M35.7814 155.654H39.5585L41.3556 144.441L35.7806 144.441L35.7814 155.654Z" fill="#FFB6B6"/>
<path d="M34.8179 154.705L42.2565 154.705H42.2568C43.514 154.705 44.7197 155.089 45.6087 155.773C46.4977 156.457 46.9971 157.385 46.9972 158.353V158.472L34.8181 158.472L34.8179 154.705Z" fill="#2F2E41"/>
<path d="M46.7968 154.624L50.5459 154.978L54.103 144.017L48.5698 143.495L46.7968 154.624Z" fill="#FFB6B6"/>
<path d="M45.9904 153.592L53.3737 154.289L53.374 154.289C54.6219 154.406 55.7578 154.901 56.532 155.663C57.3061 156.426 57.6551 157.394 57.5021 158.354L57.4834 158.472L45.3948 157.331L45.9904 153.592Z" fill="#2F2E41"/>
<path d="M33.8236 98.1621C33.8236 98.1621 26.5476 101.989 30.1854 112.349L35.1051 152.56L40.95 152.528L43.4257 132.687L45.1082 118.718L50.7299 133.163L46.106 150.887L52.9305 151.44L61.107 130.828L57.164 101.481L33.8236 98.1621Z" fill="#2F2E41"/>
<path d="M51.3798 68.3003L47.6801 66.01L37.8689 65.6992L30.7731 69.3867C30.7731 69.3867 30.0406 82.5169 34.8422 94.2132L32.3248 99.0989L57.495 101.529L51.3798 68.3003Z" fill="#DC2E2E"/>
<path d="M43.4473 62.8891C48.0952 62.8891 51.863 59.9891 51.863 56.4118C51.863 52.8345 48.0952 49.9346 43.4473 49.9346C38.7994 49.9346 35.0315 52.8345 35.0315 56.4118C35.0315 59.9891 38.7994 62.8891 43.4473 62.8891Z" fill="#FFB6B6"/>
<path d="M45.6548 48.405H43.7846C42.4814 48.106 41.1055 48.0455 39.7666 48.2281C38.4276 48.4108 37.1626 48.8316 36.0723 49.457C34.982 50.0825 34.0966 50.8953 33.4865 51.8306C32.8765 52.766 32.5588 53.7981 32.5586 54.8447L29.6459 62.2426C29.5619 62.4559 29.544 62.6814 29.5936 62.901C29.6431 63.1206 29.7589 63.3283 29.9314 63.5073C30.104 63.6863 30.3286 63.8317 30.5873 63.9319C30.846 64.0321 31.1316 64.0843 31.4213 64.0843H32.843C33.4383 63.4317 33.698 62.6323 33.5718 61.8408C33.8362 62.3363 34.0215 62.8547 34.1235 63.3846C34.1565 63.6175 34.1502 63.8527 34.1049 64.0843H46.4737C46.5537 63.1506 46.1518 62.2303 45.3553 61.5233C46.3519 62.2896 47.218 63.1501 47.9329 64.0843H48.1652C48.6572 64.0843 49.129 63.9339 49.4769 63.6661C49.8248 63.3984 50.0202 63.0353 50.0202 62.6566V55.4047H54.7494C54.7494 54.4855 54.5142 53.5753 54.0571 52.726C53.6001 51.8768 52.9302 51.1051 52.0857 50.4552C51.2411 49.8052 50.2386 49.2896 49.1352 48.9378C48.0317 48.586 46.8491 48.405 45.6548 48.405Z" fill="#2F2E41"/>
<path d="M55.0198 107.708C54.7204 107.478 54.4904 107.199 54.346 106.892C54.2015 106.586 54.1463 106.258 54.184 105.933C54.2218 105.608 54.3516 105.294 54.5645 105.012C54.7773 104.729 55.0679 104.487 55.4158 104.3L52.6284 96.666L57.7289 97.9194L59.5939 104.977C59.9619 105.447 60.0928 106.006 59.9618 106.546C59.8309 107.085 59.4471 107.57 58.8833 107.906C58.3195 108.243 57.6148 108.409 56.9027 108.372C56.1906 108.336 55.5207 108.1 55.0198 107.708Z" fill="#FFB6B6"/>
<path d="M48.1894 69.7491L51.3798 68.3003C51.3798 68.3003 56.3978 67.6195 56.9335 72.7651C57.4691 77.9107 58.2407 91.2677 58.2407 91.2677L59.8058 102.528L53.9976 103.481L47.3219 88.0828L48.1894 69.7491Z" fill="#DC2E2E"/>
<path d="M77.4858 159H0.363783C0.267302 159 0.174778 158.97 0.106555 158.918C0.0383323 158.865 0 158.794 0 158.72C0 158.646 0.0383323 158.574 0.106555 158.522C0.174778 158.469 0.267302 158.44 0.363783 158.44H77.4858C77.5823 158.44 77.6749 158.469 77.7431 158.522C77.8113 158.574 77.8496 158.646 77.8496 158.72C77.8496 158.794 77.8113 158.865 77.7431 158.918C77.6749 158.97 77.5823 159 77.4858 159Z" fill="#CACACA"/>
</svg>
