<svg width="225" height="159" viewBox="0 0 225 159" fill="none" xmlns="http://www.w3.org/2000/svg">
<path d="M204.12 124.709L203.629 124.574L20.4756 74.2438L20.9794 74.0172L146.71 17.4531L146.809 17.6379L204.12 124.709ZM21.684 74.1526L203.27 124.052L146.504 17.9986L21.684 74.1526Z" fill="#E6E6E6"/>
<path d="M224.1 102.429H178.494V134.937H224.1V102.429Z" fill="white"/>
<path d="M225 135.748H177.594V101.618H225V135.748ZM179.394 134.126H223.2V103.24H179.394V134.126Z" fill="#E6E6E6"/>
<path d="M46.506 58.376H0.900024V90.8843H46.506V58.376Z" fill="white"/>
<path d="M47.406 91.6952H0V57.5654H47.406V91.6952ZM1.79994 90.0737H45.6061V59.187H1.79994V90.0737Z" fill="#E6E6E6"/>
<path d="M172.802 0.810547H127.196V33.3189H172.802V0.810547Z" fill="white"/>
<path d="M173.702 34.1298H126.296V0H173.702V34.1298ZM128.096 32.5083H171.902V1.62157H128.096V32.5083Z" fill="#E6E6E6"/>
<path d="M144.157 12.5107L155.84 17.166L144.157 21.6185V12.5107Z" fill="#DC2E2E"/>
<path d="M33.2916 69.4365H14.1144V71.0124H33.2916V69.4365Z" fill="#DC2E2E"/>
<path d="M33.2916 73.8423H14.1144V75.4181H33.2916V73.8423Z" fill="#DC2E2E"/>
<path d="M33.2916 78.2485H14.1144V79.8244H33.2916V78.2485Z" fill="#DC2E2E"/>
<path d="M193.659 120.91C195.023 120.91 196.13 119.913 196.13 118.683C196.13 117.454 195.023 116.457 193.659 116.457C192.294 116.457 191.187 117.454 191.187 118.683C191.187 119.913 192.294 120.91 193.659 120.91Z" fill="#DC2E2E"/>
<path d="M201.297 120.91C202.662 120.91 203.768 119.913 203.768 118.683C203.768 117.454 202.662 116.457 201.297 116.457C199.932 116.457 198.826 117.454 198.826 118.683C198.826 119.913 199.932 120.91 201.297 120.91Z" fill="#DC2E2E"/>
<path d="M208.935 120.91C210.3 120.91 211.407 119.913 211.407 118.683C211.407 117.454 210.3 116.457 208.935 116.457C207.571 116.457 206.464 117.454 206.464 118.683C206.464 119.913 207.571 120.91 208.935 120.91Z" fill="#DC2E2E"/>
<path d="M88.2884 97.4091C88.5343 97.0012 88.678 96.5497 88.7093 96.0864C88.7405 95.623 88.6587 95.1592 88.4695 94.7274C88.2802 94.2957 87.9882 93.9065 87.614 93.5875C87.2397 93.2684 86.7924 93.0271 86.3035 92.8806L85.7225 85.6437L80.7548 84.8892L81.7346 95.0987C81.5159 95.855 81.6127 96.6573 82.0067 97.3535C82.4007 98.0498 83.0645 98.5916 83.8724 98.8764C84.6802 99.1612 85.5759 99.1692 86.3898 98.8987C87.2037 98.6283 87.8792 98.0983 88.2883 97.4091H88.2884Z" fill="#A0616A"/>
<path d="M103.308 154.751L107.916 154.751L110.108 138.738L103.307 138.739L103.308 154.751Z" fill="#A0616A"/>
<path d="M102.132 153.396L111.207 153.396H111.208C112.741 153.396 114.212 153.945 115.297 154.922C116.381 155.899 116.991 157.224 116.991 158.605V158.775L102.133 158.775L102.132 153.396Z" fill="#2F2E41"/>
<path d="M88.2732 154.751L92.8813 154.751L95.0733 138.738L88.2726 138.739L88.2732 154.751Z" fill="#A0616A"/>
<path d="M87.0979 153.396L96.1727 153.396H96.1731C97.7069 153.396 99.1778 153.945 100.262 154.922C101.347 155.899 101.956 157.224 101.956 158.605V158.775L87.0982 158.775L87.0979 153.396Z" fill="#2F2E41"/>
<path d="M87.0646 84.5908L84.8096 96.065L87.8164 149.566H94.5832L98.3193 123.251L99.8439 103.176L102.249 149.566L109.24 150.021L113.284 123.431L114.314 96.9115L113.229 84.5908H87.0646Z" fill="#2F2E41"/>
<path d="M96.2731 49.5054L106.421 51.1984L109.24 83.8747C109.24 83.8747 96.8369 88.9539 92.3266 84.552C87.8162 80.15 96.2731 49.5054 96.2731 49.5054Z" fill="#CCCCCC"/>
<path d="M116.006 56.1082L106.421 51.1982L105.106 73.7161C105.106 73.7161 104.73 100.128 112.247 100.128L117.885 98.4349L114.878 76.425L116.006 56.1082Z" fill="#2F2E41"/>
<path d="M84.8093 54.0767L96.2731 49.5054L97.5887 69.3143C97.5887 69.3143 101.347 95.7262 89.3197 96.7421C89.3197 96.7421 85.9369 97.0807 84.4335 94.7104L86.6886 75.0708L84.8093 54.0767Z" fill="#2F2E41"/>
<path d="M87.0646 55.093L84.8094 54.0771C84.8094 54.0771 83.6818 54.0771 83.306 54.7544C82.9301 55.4316 78.2289 75.0712 78.2289 75.0712L81.1056 93.4093L86.6888 90.9861L85.5271 75.6638L87.0646 55.093Z" fill="#2F2E41"/>
<path d="M111.908 99.7314C111.627 99.3423 111.444 98.9024 111.372 98.4428C111.3 97.9831 111.341 97.5148 111.492 97.071C111.643 96.6271 111.9 96.2184 112.245 95.8737C112.59 95.529 113.015 95.2566 113.489 95.0758L113.434 87.8202L118.32 86.7144L118.239 96.9617C118.523 97.7001 118.497 98.5067 118.165 99.2289C117.833 99.951 117.219 100.538 116.439 100.88C115.658 101.221 114.766 101.293 113.931 101.081C113.096 100.87 112.376 100.389 111.908 99.7314H111.908Z" fill="#A0616A"/>
<path d="M111.871 56.447L116.006 56.1084C116.006 56.1084 117.509 56.5963 117.885 60.7543C118.261 64.9124 118.261 75.3441 118.261 75.3441L119.389 94.0332H112.999L111.12 75.0708L111.871 56.447Z" fill="#2F2E41"/>
<path d="M102.599 46.6858C107.476 46.6858 111.43 43.1241 111.43 38.7304C111.43 34.3367 107.476 30.7749 102.599 30.7749C97.7225 30.7749 93.7689 34.3367 93.7689 38.7304C93.7689 43.1241 97.7225 46.6858 102.599 46.6858Z" fill="#A0616A"/>
<path d="M101.283 40.3541L101.161 38.465C101.132 38.0246 101.283 37.4111 101.771 37.4428C102.187 37.4697 103.111 37.6159 103.234 37.4981C103.694 37.0571 104.641 37.5073 105.137 37.0995C105.345 36.9286 105.437 36.6271 105.708 36.5585C105.895 36.5353 106.085 36.5744 106.242 36.6684C106.673 36.8883 107.153 37.0205 107.647 37.0556C107.894 37.0702 108.141 37.0249 108.362 36.9245C108.583 36.824 108.771 36.6721 108.905 36.4845C108.946 36.3901 109.011 36.3057 109.094 36.238C109.199 36.1886 109.319 36.1717 109.436 36.1899L110.958 36.2793C111.014 35.5475 110.894 34.8135 110.605 34.1275C110.317 33.4414 109.868 32.8195 109.288 32.3043C108.542 31.696 107.691 31.2001 106.769 30.8358C105.738 30.3873 104.686 29.9804 103.613 29.6152C102.44 29.2139 101.21 28.8576 99.9562 28.9141C98.7022 28.9707 97.4075 29.518 96.8385 30.5262C96.4256 30.3576 96.0807 30.0779 95.8512 29.7257C95.7813 29.8118 95.7332 29.9106 95.7103 30.0152C95.6875 30.1198 95.6904 30.2277 95.7188 30.3312C95.7473 30.4347 95.8006 30.5313 95.875 30.6142C95.9494 30.6971 96.0432 30.7643 96.1496 30.811L94.7712 30.3328C94.5015 30.72 95.3044 31.1854 95.0941 31.6014C95.0259 31.7073 94.9276 31.7948 94.8093 31.8548C94.1994 32.2088 93.6701 32.6643 93.2496 33.1969C92.6915 33.9588 92.5049 34.8883 92.3689 35.7929C92.0662 37.8049 92.0245 40.0563 93.4544 41.6256C93.6165 41.8035 95.9053 44.811 96.1401 44.9016C96.9341 45.2078 96.244 44.2411 96.8818 44.7657C97.382 45.1771 96.8913 43.3416 97.5642 43.6409C97.8253 43.746 98.1146 43.7807 98.3971 43.7408C98.6796 43.7008 98.9431 43.5879 99.1559 43.4157C99.3628 43.221 99.0964 42.3991 98.793 41.6552C98.7351 41.5135 98.7166 41.3612 98.7392 41.2116C98.7619 41.062 98.8249 40.9197 98.9228 40.7971C99.0207 40.6745 99.1505 40.5755 99.3008 40.5086C99.451 40.4418 99.6172 40.4091 99.7847 40.4136C100.543 40.4343 101.288 40.4343 101.283 40.3541Z" fill="#2F2E41"/>
<path d="M138.67 159H64.5721C64.4925 159 64.4162 158.972 64.36 158.921C64.3037 158.87 64.2721 158.801 64.2721 158.73C64.2721 158.658 64.3037 158.589 64.36 158.539C64.4162 158.488 64.4925 158.459 64.5721 158.459H138.67C138.749 158.459 138.825 158.488 138.882 158.539C138.938 158.589 138.97 158.658 138.97 158.73C138.97 158.801 138.938 158.87 138.882 158.921C138.825 158.972 138.749 159 138.67 159Z" fill="#CCCCCC"/>
</svg>
