<svg width="225" height="159" viewBox="0 0 225 159" fill="none" xmlns="http://www.w3.org/2000/svg">
<g clip-path="url(#clip0_12_159)">
<path d="M16.8955 145.913C18.192 146.288 19.584 146.382 20.9375 146.186C22.2909 145.99 23.5602 145.51 24.6229 144.792C27.3294 142.921 28.1782 139.84 28.8684 136.986L30.9107 128.545L26.6351 130.969C23.5601 132.713 20.4161 134.512 18.2872 137.038C16.1584 139.563 15.2296 143.011 16.9396 145.743" fill="#E6E6E6"/>
<path d="M17.5557 156.72C17.0176 153.492 16.4639 150.221 16.8423 146.958C17.1776 144.06 18.2513 141.229 20.4373 138.908C21.5976 137.678 23.0095 136.624 24.6094 135.794C25.0265 135.577 25.4105 136.122 24.9952 136.338C22.2268 137.778 20.0854 139.906 18.8799 142.414C17.5486 145.202 17.3348 148.242 17.5641 151.204C17.7028 152.996 17.9973 154.775 18.2931 156.553C18.3165 156.633 18.3019 156.718 18.2523 156.79C18.2028 156.862 18.1219 156.915 18.0261 156.94C17.9284 156.962 17.8242 156.951 17.7362 156.909C17.6482 156.868 17.5834 156.8 17.556 156.72L17.5557 156.72Z" fill="#F2F2F2"/>
<path d="M21.4292 151.539C21.9852 152.236 22.7495 152.802 23.6485 153.184C24.5475 153.566 25.5508 153.752 26.5619 153.722C29.1609 153.62 31.3267 152.127 33.2762 150.709L39.0437 146.515L35.2267 146.365C32.4818 146.257 29.6659 146.155 27.0514 146.853C24.4369 147.551 22.0257 149.228 21.5477 151.457" fill="#E6E6E6"/>
<path d="M16.0345 158.576C18.6254 154.801 21.6302 150.605 26.9999 149.264C28.4929 148.893 30.0583 148.76 31.6119 148.872C32.1016 148.907 31.9793 149.529 31.4906 149.494C28.8863 149.316 26.287 149.882 24.1304 151.098C22.055 152.261 20.439 153.878 19.0715 155.593C18.2337 156.644 17.4833 157.739 16.7329 158.833C16.4932 159.182 15.792 158.93 16.0345 158.576Z" fill="#F2F2F2"/>
<path d="M223.34 111.972H80.5037C80.0636 111.972 79.6417 111.828 79.3305 111.571C79.0192 111.315 78.8441 110.968 78.8436 110.605V1.36718C78.8441 1.00473 79.0192 0.657254 79.3305 0.400961C79.6417 0.144668 80.0636 0.000473817 80.5037 0H223.34C223.78 0.000473817 224.202 0.144668 224.513 0.400961C224.824 0.657254 224.999 1.00473 225 1.36718V110.605C225 110.967 224.824 111.315 224.513 111.571C224.202 111.827 223.78 111.972 223.34 111.972V111.972Z" fill="white"/>
<path d="M223.34 111.972H80.5037C80.0636 111.972 79.6417 111.828 79.3305 111.571C79.0192 111.315 78.8441 110.968 78.8436 110.605V1.36718C78.8441 1.00473 79.0192 0.657254 79.3305 0.400961C79.6417 0.144668 80.0636 0.000473817 80.5037 0H223.34C223.78 0.000473817 224.202 0.144668 224.513 0.400961C224.824 0.657254 224.999 1.00473 225 1.36718V110.605C225 110.967 224.824 111.315 224.513 111.571C224.202 111.827 223.78 111.972 223.34 111.972V111.972ZM80.5037 0.545795C80.24 0.546267 79.9872 0.63277 79.8006 0.78637C79.6141 0.939971 79.5091 1.14816 79.5085 1.36539V110.605C79.5091 110.822 79.6141 111.03 79.8006 111.184C79.9872 111.337 80.24 111.424 80.5037 111.424H223.34C223.604 111.424 223.857 111.338 224.043 111.184C224.23 111.03 224.335 110.822 224.335 110.605V1.36718C224.335 1.14996 224.229 0.941764 224.043 0.788164C223.856 0.634564 223.604 0.548061 223.34 0.547589L80.5037 0.545795Z" fill="#CACACA"/>
<path d="M147.996 28.3857C147.698 28.3862 147.412 28.4841 147.201 28.6582C146.99 28.8322 146.871 29.068 146.871 29.3139C146.871 29.5598 146.99 29.7957 147.201 29.9697C147.412 30.1437 147.698 30.2417 147.996 30.2421H209.842C210.141 30.2417 210.427 30.1437 210.638 29.9697C210.849 29.7957 210.968 29.5598 210.968 29.3139C210.968 29.068 210.849 28.8322 210.638 28.6582C210.427 28.4841 210.141 28.3862 209.842 28.3857H147.996Z" fill="#E4E4E4"/>
<path d="M147.996 33.9551C147.698 33.9557 147.412 34.0537 147.201 34.2277C146.99 34.4017 146.872 34.6375 146.872 34.8833C146.872 35.129 146.99 35.3648 147.201 35.5388C147.412 35.7128 147.698 35.8109 147.996 35.8114H179.57C179.868 35.8109 180.154 35.7128 180.365 35.5388C180.576 35.3648 180.694 35.129 180.694 34.8833C180.694 34.6375 180.576 34.4017 180.365 34.2277C180.154 34.0537 179.868 33.9557 179.57 33.9551H147.996Z" fill="#E4E4E4"/>
<path d="M93.941 63.9067C93.6425 63.9073 93.3566 64.0054 93.1458 64.1794C92.935 64.3534 92.8167 64.5891 92.8167 64.8349C92.8167 65.0807 92.935 65.3164 93.1458 65.4904C93.3566 65.6644 93.6425 65.7625 93.941 65.7631H209.903C210.201 65.7625 210.487 65.6644 210.698 65.4904C210.909 65.3164 211.027 65.0807 211.027 64.8349C211.027 64.5891 210.909 64.3534 210.698 64.1794C210.487 64.0054 210.201 63.9073 209.903 63.9067H93.941Z" fill="#E4E4E4"/>
<path d="M93.941 69.4766C93.6425 69.4772 93.3566 69.5752 93.1458 69.7492C92.935 69.9232 92.8167 70.159 92.8167 70.4047C92.8167 70.6505 92.935 70.8863 93.1458 71.0603C93.3566 71.2343 93.6425 71.3323 93.941 71.3329H179.63C179.929 71.3323 180.215 71.2343 180.425 71.0603C180.636 70.8863 180.755 70.6505 180.755 70.4047C180.755 70.159 180.636 69.9232 180.425 69.7492C180.215 69.5752 179.929 69.4772 179.63 69.4766H93.941Z" fill="#E4E4E4"/>
<path d="M93.941 74.9204C93.6425 74.921 93.3566 75.0191 93.1458 75.1931C92.935 75.3671 92.8167 75.6028 92.8167 75.8486C92.8167 76.0944 92.935 76.3301 93.1458 76.5041C93.3566 76.6781 93.6425 76.7762 93.941 76.7768H209.903C210.201 76.7762 210.487 76.6781 210.698 76.5041C210.909 76.3301 211.027 76.0944 211.027 75.8486C211.027 75.6028 210.909 75.3671 210.698 75.1931C210.487 75.0191 210.201 74.921 209.903 74.9204H93.941Z" fill="#E4E4E4"/>
<path d="M93.941 80.4897C93.6425 80.4903 93.3566 80.5884 93.1458 80.7624C92.935 80.9364 92.8167 81.1721 92.8167 81.4179C92.8167 81.6637 92.935 81.8995 93.1458 82.0735C93.3566 82.2475 93.6425 82.3455 93.941 82.3461H179.63C179.929 82.3455 180.215 82.2475 180.425 82.0735C180.636 81.8995 180.755 81.6637 180.755 81.4179C180.755 81.1721 180.636 80.9364 180.425 80.7624C180.215 80.5884 179.929 80.4903 179.63 80.4897H93.941Z" fill="#E4E4E4"/>
<path d="M93.941 86.0786C93.6425 86.0792 93.3566 86.1773 93.1458 86.3513C92.935 86.5253 92.8167 86.761 92.8167 87.0068C92.8167 87.2526 92.935 87.4883 93.1458 87.6623C93.3566 87.8363 93.6425 87.9344 93.941 87.935H209.903C210.201 87.9344 210.487 87.8363 210.698 87.6623C210.909 87.4883 211.027 87.2526 211.027 87.0068C211.027 86.761 210.909 86.5253 210.698 86.3513C210.487 86.1773 210.201 86.0792 209.903 86.0786H93.941Z" fill="#E4E4E4"/>
<path d="M93.941 91.6479C93.6425 91.6485 93.3566 91.7466 93.1458 91.9206C92.935 92.0946 92.8167 92.3303 92.8167 92.5761C92.8167 92.8219 92.935 93.0576 93.1458 93.2316C93.3566 93.4056 93.6425 93.5037 93.941 93.5043H179.63C179.929 93.5037 180.215 93.4056 180.425 93.2316C180.636 93.0576 180.755 92.8219 180.755 92.5761C180.755 92.3303 180.636 92.0946 180.425 91.9206C180.215 91.7466 179.929 91.6485 179.63 91.6479H93.941Z" fill="#E4E4E4"/>
<path d="M112.308 45.4341C109.105 45.4341 105.975 44.652 103.312 43.1867C100.649 41.7214 98.573 39.6387 97.3474 37.202C96.1217 34.7653 95.801 32.0839 96.4258 29.4971C97.0506 26.9103 98.5929 24.5341 100.858 22.6691C103.122 20.8041 106.008 19.534 109.149 19.0194C112.29 18.5049 115.546 18.769 118.505 19.7783C121.464 20.7876 123.993 22.4968 125.772 24.6898C127.552 26.8829 128.501 29.4611 128.501 32.0986C128.496 35.6342 126.789 39.0237 123.753 41.5238C120.717 44.0238 116.601 45.4301 112.308 45.4341Z" fill="#DC2E2E"/>
<path d="M63.1529 95.8565C63.1249 95.3697 62.9677 94.894 62.6922 94.4627C62.4168 94.0314 62.0299 93.6551 61.5588 93.3603C61.0876 93.0654 60.5437 92.8593 59.9654 92.7563C59.387 92.6533 58.7883 92.656 58.2114 92.7642L52.8589 86.5522L47.4816 88.3102L55.19 96.9952C55.4749 97.7814 56.1001 98.4541 56.9471 98.886C57.7941 99.3179 58.8041 99.4789 59.7856 99.3386C60.7672 99.1982 61.6521 98.7662 62.2727 98.1244C62.8933 97.4826 63.2065 96.6757 63.1529 95.8565H63.1529Z" fill="#A0616A"/>
<path d="M52.7211 95.3959L36.5253 78.0931L42.5937 62.3869C43.0384 58.4382 46.0389 57.3355 46.1666 57.2905L46.3613 57.2217L51.642 68.8186L47.7647 77.3332L57.2813 90.5141L52.7211 95.3959Z" fill="#3F3D56"/>
<path d="M108.967 42.0571C108.379 42.1178 107.816 42.2837 107.315 42.5431C106.814 42.8026 106.388 43.1494 106.068 43.559C105.747 43.9686 105.54 44.4312 105.46 44.914C105.38 45.3968 105.429 45.8882 105.605 46.3535L98.4982 51.2285L101.042 55.5076L110.961 48.5071C111.891 48.2124 112.657 47.647 113.114 46.9182C113.572 46.1894 113.688 45.3477 113.443 44.5526C113.197 43.7576 112.605 43.0644 111.78 42.6045C110.955 42.1446 109.954 41.9498 108.967 42.0571Z" fill="#A0616A"/>
<path d="M109.216 50.6578L89.52 65.2932L70.0358 61.525C65.2208 61.4652 63.6539 59.0869 63.5895 58.9856L63.4911 58.831L77.1229 53.5986L87.731 56.1237L102.953 47.291L109.216 50.6578Z" fill="#3F3D56"/>
<path d="M75.0997 154.702L80.3916 154.701L82.9089 137.892L75.0988 137.892L75.0997 154.702Z" fill="#A0616A"/>
<path d="M90.5974 158.748L73.9659 158.748L73.9656 153.456L85.9311 153.456C87.1686 153.456 88.3554 153.861 89.2305 154.581C90.1056 155.302 90.5973 156.279 90.5973 157.298L90.5974 158.748L90.5974 158.748Z" fill="#2F2E41"/>
<path d="M53.949 154.702L59.2409 154.701L61.7585 137.892L53.9484 137.892L53.949 154.702Z" fill="#A0616A"/>
<path d="M69.4469 158.748L52.8154 158.748L52.8151 153.456L64.7806 153.456C65.3933 153.456 66.0001 153.555 66.5662 153.748C67.1323 153.941 67.6467 154.224 68.08 154.581C68.5133 154.938 68.857 155.362 69.0916 155.828C69.3261 156.294 69.4468 156.794 69.4468 157.298L69.4469 158.748Z" fill="#2F2E41"/>
<path d="M52.067 93.3457L52.4986 118.228L52.9305 150.931L62.4263 150.22L67.1746 105.076L73.2177 150.22H83.0212L84.0087 104.721L80.5555 94.7677L52.067 93.3457Z" fill="#2F2E41"/>
<path d="M70.6534 96.6872C60.321 96.6878 50.8101 92.8366 50.6817 92.7838L50.5751 92.7399L49.708 75.6034C49.4566 74.9979 44.5054 63.0488 43.6669 59.2508C42.8173 55.4029 55.1306 52.0259 56.6258 51.631L56.9652 48.5355L70.7637 47.311L72.5126 51.2718L77.4629 52.8005C78.0241 52.9739 78.4885 53.3108 78.7682 53.7474C79.0479 54.184 79.1234 54.69 78.9804 55.1693L76.2291 64.3834L82.9487 94.8679L81.5021 94.9194C78.0345 96.2091 74.2919 96.687 70.6534 96.6872Z" fill="#3F3D56"/>
<path d="M69.1699 44.3481C73.9844 42.1807 75.7538 37.2096 73.1219 33.2447C70.4901 29.2799 64.4536 27.8227 59.639 29.9901C54.8245 32.1575 53.0551 37.1287 55.687 41.0936C58.3189 45.0584 64.3554 46.5155 69.1699 44.3481Z" fill="#A0616A"/>
<path d="M56.3578 45.0892C58.2512 46.7501 61.7674 45.8585 62.0141 43.5895C62.0335 43.4133 62.0321 43.236 62.0099 43.0601C61.8826 42.055 61.1775 41.1425 61.3464 40.0812C61.3846 39.8171 61.5041 39.5654 61.6935 39.35C63.2023 37.6862 66.744 40.0942 68.168 38.5879C69.0411 37.6644 68.0147 36.2103 68.6848 35.178C69.5691 33.8156 72.1884 34.4877 73.831 33.7416C75.6586 32.9114 75.5492 30.6022 74.3462 29.1977C72.8791 27.4848 70.3067 26.5708 67.7663 26.439C65.226 26.3073 62.7031 26.8728 60.3315 27.634C57.6368 28.4988 54.9647 29.6939 53.3064 31.6452C51.2898 34.0182 51.0957 37.2084 52.1043 39.9831C52.7178 41.671 54.8116 43.7329 56.3578 45.0892Z" fill="#2F2E41"/>
<path d="M126.241 158.958H0.330475C0.242827 158.958 0.158765 158.93 0.0967885 158.879C0.0348125 158.828 0 158.758 0 158.686C0 158.614 0.0348125 158.545 0.0967885 158.494C0.158765 158.443 0.242827 158.414 0.330475 158.414H126.241C126.329 158.414 126.413 158.443 126.475 158.494C126.537 158.545 126.572 158.614 126.572 158.686C126.572 158.758 126.537 158.828 126.475 158.879C126.413 158.93 126.329 158.958 126.241 158.958Z" fill="#CACACA"/>
<path d="M111.373 37.1355C111.081 37.1358 110.8 37.0448 110.586 36.8809L105.247 32.7966C105.022 32.6246 104.89 32.3863 104.879 32.134C104.867 31.8817 104.978 31.6361 105.187 31.4511C105.396 31.2662 105.685 31.1569 105.991 31.1475C106.298 31.1381 106.596 31.2292 106.821 31.4008L111.344 34.8603L120.292 27.4915C120.399 27.4025 120.526 27.3318 120.667 27.2835C120.808 27.2352 120.958 27.2102 121.111 27.21C121.263 27.2097 121.414 27.2343 121.554 27.2821C121.695 27.33 121.823 27.4003 121.931 27.489C122.038 27.5777 122.124 27.683 122.182 27.7989C122.24 27.9148 122.27 28.039 122.269 28.1644C122.269 28.2898 122.239 28.414 122.18 28.5297C122.121 28.6454 122.035 28.7504 121.927 28.8387L112.191 36.8566C112.084 36.9451 111.956 37.0153 111.816 37.0632C111.675 37.1111 111.525 37.1356 111.373 37.1355Z" fill="white"/>
</g>
<defs>
<clipPath id="clip0_12_159">
<rect width="225" height="159" fill="white"/>
</clipPath>
</defs>
</svg>
