<svg width="82" height="82" viewBox="0 0 82 82" fill="none" xmlns="http://www.w3.org/2000/svg">
<g clip-path="url(#clip0_104_8)">
<path fill-rule="evenodd" clip-rule="evenodd" d="M41 76.875C50.5146 76.875 59.6396 73.0953 66.3675 66.3675C73.0953 59.6396 76.875 50.5146 76.875 41C76.875 31.4854 73.0953 22.3604 66.3675 15.6325C59.6396 8.90468 50.5146 5.125 41 5.125C31.4854 5.125 22.3604 8.90468 15.6325 15.6325C8.90468 22.3604 5.125 31.4854 5.125 41C5.125 50.5146 8.90468 59.6396 15.6325 66.3675C22.3604 73.0953 31.4854 76.875 41 76.875V76.875ZM41 82C51.8739 82 62.3024 77.6804 69.9914 69.9914C77.6804 62.3024 82 51.8739 82 41C82 30.1261 77.6804 19.6976 69.9914 12.0086C62.3024 4.31963 51.8739 0 41 0C30.1261 0 19.6976 4.31963 12.0086 12.0086C4.31963 19.6976 0 30.1261 0 41C0 51.8739 4.31963 62.3024 12.0086 69.9914C19.6976 77.6804 30.1261 82 41 82V82Z" fill="white"/>
<path fill-rule="evenodd" clip-rule="evenodd" d="M41.0007 20.5C41.6803 20.5 42.3321 20.77 42.8126 21.2505C43.2932 21.7311 43.5632 22.3829 43.5632 23.0625V52.7516L54.5614 41.7483C54.7997 41.51 55.0825 41.321 55.3938 41.1921C55.7051 41.0631 56.0387 40.9968 56.3757 40.9968C56.7126 40.9968 57.0462 41.0631 57.3575 41.1921C57.6688 41.321 57.9517 41.51 58.1899 41.7483C58.4282 41.9865 58.6172 42.2693 58.7461 42.5806C58.875 42.8919 58.9414 43.2256 58.9414 43.5625C58.9414 43.8994 58.875 44.2331 58.7461 44.5444C58.6172 44.8557 58.4282 45.1385 58.1899 45.3768L42.8149 60.7518C42.5769 60.9904 42.2941 61.1797 41.9828 61.3089C41.6715 61.4381 41.3377 61.5046 41.0007 61.5046C40.6636 61.5046 40.3299 61.4381 40.0186 61.3089C39.7072 61.1797 39.4245 60.9904 39.1864 60.7518L23.8114 45.3768C23.5732 45.1385 23.3842 44.8557 23.2552 44.5444C23.1263 44.2331 23.0599 43.8994 23.0599 43.5625C23.0599 43.2256 23.1263 42.8919 23.2552 42.5806C23.3842 42.2693 23.5732 41.9865 23.8114 41.7483C24.2926 41.2671 24.9452 40.9968 25.6257 40.9968C25.9626 40.9968 26.2963 41.0631 26.6075 41.1921C26.9188 41.321 27.2017 41.51 27.4399 41.7483L38.4382 52.7516V23.0625C38.4382 22.3829 38.7082 21.7311 39.1887 21.2505C39.6693 20.77 40.3211 20.5 41.0007 20.5V20.5Z" fill="white"/>
</g>
<defs>
<clipPath id="clip0_104_8">
<rect width="82" height="82" fill="white"/>
</clipPath>
</defs>
</svg>
